<?xml version="1.0" encoding="UTF-8" standalone="no"?>
<!DOCTYPE svg PUBLIC "-//W3C//DTD SVG 1.1//EN" "http://www.w3.org/Graphics/SVG/1.1/DTD/svg11.dtd">
<svg width="100%" height="100%" viewBox="0 0 125 125" version="1.1" xmlns="http://www.w3.org/2000/svg" xmlns:xlink="http://www.w3.org/1999/xlink" xml:space="preserve" xmlns:serif="http://www.serif.com/" style="fill-rule:evenodd;clip-rule:evenodd;stroke-linejoin:round;stroke-miterlimit:2;">
    <g transform="matrix(0.972139,0,0,0.972139,-63.4893,-63.4893)">
        <g>
            <path d="M154.148,134.391C154.148,127.616 151.398,121.465 146.948,117.043C142.526,112.592 136.375,109.843 129.6,109.843C122.825,109.843 116.674,112.592 112.252,117.043C107.802,121.465 105.052,127.616 105.052,134.391C105.052,141.165 107.802,147.317 112.252,151.739C116.674,156.189 122.825,158.939 129.6,158.939C136.375,158.939 142.526,156.189 146.948,151.739C151.398,147.317 154.148,141.165 154.148,134.391ZM91.106,145.672L82.006,145.672L75.628,156.728L87.987,160.044L94.394,153.638C93.713,152.362 93.09,151.058 92.523,149.726C91.984,148.422 91.502,147.061 91.106,145.672ZM92.523,119.055C93.09,117.723 93.713,116.419 94.394,115.143L87.987,108.737L75.628,112.054L82.006,123.109L91.106,123.109C91.502,121.72 91.984,120.359 92.523,119.055ZM118.318,95.896L118.318,86.797L107.235,80.419L103.918,92.778L110.353,99.213C111.628,98.504 112.904,97.88 114.236,97.342C115.569,96.775 116.929,96.321 118.318,95.896ZM148.847,99.213L155.254,92.778L151.965,80.419L140.882,86.825L140.882,95.896C142.271,96.293 143.631,96.775 144.964,97.342C146.296,97.88 147.572,98.504 148.847,99.213ZM168.094,123.109L177.165,123.109L183.572,112.054L171.213,108.737L164.778,115.143C165.487,116.419 166.11,117.723 166.649,119.055C167.216,120.359 167.698,121.72 168.094,123.109ZM164.778,153.638L171.213,160.044L183.572,156.728L177.165,145.672L168.094,145.672C167.698,147.061 167.216,148.422 166.649,149.726C166.11,151.058 165.487,152.362 164.778,153.638ZM140.882,172.885L140.882,181.956L151.965,188.362L155.254,176.003L148.847,169.569C147.572,170.277 146.296,170.901 144.935,171.468C143.631,172.006 142.271,172.488 140.882,172.885ZM110.353,169.569L103.918,176.003L105.506,181.899L105.534,182.041L105.761,182.891L105.789,182.891L107.235,188.362L118.318,181.984L118.318,172.885C116.929,172.488 115.569,172.006 114.236,171.439C112.904,170.901 111.628,170.277 110.353,169.569Z" style="fill:rgb(252,207,77);"/>
            <path d="M75.628,107.263L82.006,118.318L91.106,118.318C91.502,116.929 91.984,115.569 92.523,114.265C93.09,112.932 93.713,111.628 94.394,110.353L87.987,103.946L75.628,107.263ZM129.6,100.261C137.707,100.261 145.049,103.55 150.35,108.85C155.65,114.151 158.939,121.493 158.939,129.6C158.939,137.707 155.65,145.049 150.35,150.35C145.049,155.65 137.707,158.939 129.6,158.939C121.493,158.939 114.151,155.65 108.85,150.35C103.55,145.049 100.261,137.707 100.261,129.6C100.261,121.493 103.55,114.151 108.85,108.85C114.151,103.55 121.493,100.261 129.6,100.261ZM146.948,112.252C142.526,107.802 136.375,105.052 129.6,105.052C122.825,105.052 116.674,107.802 112.252,112.252C107.802,116.674 105.052,122.825 105.052,129.6C105.052,136.375 107.802,142.526 112.252,146.948C116.674,151.398 122.825,154.148 129.6,154.148C136.375,154.148 142.526,151.398 146.948,146.948C151.398,142.526 154.148,136.375 154.148,129.6C154.148,122.825 151.398,116.674 146.948,112.252ZM140.882,91.106C142.271,91.502 143.631,91.984 144.964,92.551C146.296,93.09 147.572,93.713 148.847,94.422L155.254,87.987L151.965,75.628L140.882,82.035L140.882,91.106ZM143.121,96.973C141.477,96.293 139.805,95.726 138.104,95.301C136.942,95.131 136.063,94.139 136.063,92.92L136.063,80.646L136.091,80.646C136.091,79.824 136.517,79.03 137.282,78.576L152.164,69.987C152.362,69.846 152.589,69.732 152.844,69.676C154.12,69.335 155.424,70.101 155.764,71.376L160.214,87.959C160.498,88.809 160.299,89.745 159.619,90.425L150.945,99.099C150.18,99.865 148.961,100.035 147.997,99.468C146.438,98.504 144.822,97.682 143.121,96.973ZM171.213,103.946L164.778,110.353C165.487,111.628 166.11,112.932 166.649,114.265C167.216,115.569 167.698,116.929 168.094,118.318L177.165,118.318L183.572,107.263L171.213,103.946ZM160.101,108.283L168.803,99.553C169.37,98.986 170.249,98.731 171.099,98.957L187.824,103.436C188.022,103.493 188.22,103.55 188.391,103.663C189.553,104.343 189.95,105.789 189.269,106.951L180.709,121.776C180.312,122.57 179.49,123.109 178.554,123.109L166.252,123.109C165.175,123.109 164.211,122.372 163.928,121.294C163.502,119.509 162.935,117.78 162.227,116.107C161.546,114.463 160.753,112.876 159.817,111.373C159.165,110.409 159.25,109.106 160.101,108.283ZM87.987,155.254L94.394,148.847C93.713,147.572 93.09,146.268 92.523,144.935C91.984,143.631 91.502,142.271 91.106,140.882L82.006,140.882L75.628,151.937L87.987,155.254ZM99.099,150.917L90.397,159.647C89.802,160.214 88.951,160.469 88.072,160.243L71.376,155.764C71.178,155.707 70.98,155.622 70.809,155.537C69.676,154.885 69.279,153.411 69.931,152.277L78.463,137.48C78.831,136.658 79.682,136.091 80.646,136.091L92.92,136.091C93.997,136.091 94.989,136.828 95.244,137.906C95.669,139.691 96.265,141.42 96.945,143.093C97.654,144.765 98.447,146.324 99.354,147.827C100.035,148.791 99.95,150.094 99.099,150.917ZM107.235,183.572L118.318,177.194L118.318,168.094C116.929,167.698 115.569,167.216 114.236,166.649C112.904,166.11 111.628,165.487 110.353,164.778L103.918,171.213L105.506,177.109L105.534,177.25L105.761,178.101L105.789,178.101L107.235,183.572ZM121.918,180.624L107.093,189.184C106.866,189.326 106.639,189.439 106.356,189.524C105.08,189.865 103.776,189.099 103.408,187.824L101.14,179.348L100.942,178.526L100.885,178.328L98.986,171.241C98.702,170.419 98.901,169.455 99.553,168.803L108.255,160.101L108.283,160.101C109.02,159.335 110.239,159.165 111.203,159.732C112.762,160.696 114.378,161.518 116.079,162.227C117.694,162.907 119.395,163.474 121.096,163.899C122.23,164.069 123.109,165.061 123.109,166.252L123.109,178.554C123.109,179.376 122.683,180.198 121.918,180.624ZM183.572,151.937L177.165,140.882L168.094,140.882C167.698,142.271 167.216,143.631 166.649,144.935C166.11,146.268 165.487,147.572 164.778,148.847L171.213,155.254L183.572,151.937ZM180.624,137.282L189.213,152.164C189.354,152.362 189.439,152.589 189.524,152.844C189.865,154.12 189.099,155.424 187.824,155.764L171.241,160.214C170.419,160.498 169.455,160.299 168.803,159.647L160.101,150.917C159.335,150.151 159.165,148.961 159.732,147.997C160.696,146.438 161.518,144.794 162.227,143.093C162.907,141.477 163.474,139.805 163.899,138.104C164.069,136.942 165.061,136.091 166.252,136.091L178.554,136.091C179.376,136.091 180.17,136.517 180.624,137.282ZM155.254,171.213L148.847,164.778C147.572,165.487 146.296,166.11 144.935,166.677C143.631,167.216 142.271,167.698 140.882,168.094L140.882,177.165L151.965,183.572L155.254,171.213ZM150.945,160.101L159.619,168.775C160.214,169.37 160.469,170.249 160.243,171.099L155.764,187.824C155.735,188.022 155.65,188.22 155.537,188.419C154.885,189.553 153.411,189.95 152.249,189.269L137.424,180.709C136.63,180.312 136.063,179.49 136.063,178.554L136.063,166.28L136.091,166.28C136.091,165.203 136.828,164.211 137.906,163.956C139.691,163.502 141.42,162.935 143.121,162.227C144.765,161.546 146.353,160.753 147.855,159.846C148.791,159.165 150.094,159.25 150.945,160.101ZM103.918,87.987L110.353,94.422C111.628,93.713 112.904,93.09 114.236,92.551C115.569,91.984 116.929,91.531 118.318,91.106L118.318,82.006L107.235,75.628L103.918,87.987ZM108.255,99.099L99.553,90.397C98.986,89.802 98.702,88.951 98.929,88.072C99.666,85.351 100.403,82.602 101.14,79.852L103.408,71.376L103.436,71.376C103.493,71.178 103.55,70.98 103.663,70.809C104.315,69.647 105.789,69.25 106.923,69.931L121.72,78.463C122.542,78.831 123.109,79.682 123.109,80.646L123.109,92.948C123.109,94.025 122.372,94.989 121.266,95.272C119.509,95.698 117.751,96.265 116.079,96.973C114.435,97.654 112.847,98.447 111.345,99.354C110.409,100.035 109.106,99.95 108.255,99.099ZM78.576,121.918L70.016,107.093C69.874,106.894 69.761,106.639 69.676,106.356C69.335,105.08 70.101,103.776 71.376,103.436L87.959,98.986C88.781,98.702 89.745,98.901 90.397,99.553L99.099,108.283C99.865,109.049 100.035,110.239 99.439,111.203C98.504,112.762 97.654,114.406 96.945,116.107C96.265,117.723 95.726,119.395 95.301,121.096C95.102,122.258 94.11,123.109 92.92,123.109L80.646,123.109C79.824,123.109 79.002,122.683 78.576,121.918Z" style="fill:rgb(54,79,107);fill-rule:nonzero;"/>
        </g>
    </g>
    <g id="Layer1">
    </g>
</svg>
