<?xml version="1.0" encoding="UTF-8" standalone="no"?>
<!DOCTYPE svg PUBLIC "-//W3C//DTD SVG 1.1//EN" "http://www.w3.org/Graphics/SVG/1.1/DTD/svg11.dtd">
<svg width="100%" height="100%" viewBox="0 0 125 125" version="1.1" xmlns="http://www.w3.org/2000/svg" xmlns:xlink="http://www.w3.org/1999/xlink" xml:space="preserve" xmlns:serif="http://www.serif.com/" style="fill-rule:evenodd;clip-rule:evenodd;stroke-linejoin:round;stroke-miterlimit:2;">
    <g id="Layer1" transform="matrix(1,0,0,1,4,2)">
        <g id="_01n.svg" serif:id="01n.svg" transform="matrix(1.03245,0,0,1.03245,58.5,60.5)">
            <g id="Layer11" serif:id="Layer1">
                <g id="_01n.svg1" serif:id="01n.svg" transform="matrix(1,0,0,1,-54,-56.5)">
                    <clipPath id="_clip1">
                        <rect x="0" y="0" width="108" height="113"/>
                    </clipPath>
                    <g clip-path="url(#_clip1)">
                        <g transform="matrix(1,0,0,1,-75.6,-73.3614)">
                            <g>
                                <path d="M80.334,133.739C80.334,148.139 86.145,161.15 95.584,170.589C105.024,180.028 118.035,185.839 132.435,185.839C142.498,185.839 151.909,183.005 159.846,178.072C166.734,173.792 172.573,167.953 176.825,161.036L175.89,161.15C173.906,161.348 171.95,161.461 169.994,161.461C154.29,161.461 140.088,155.083 129.798,144.822C119.509,134.532 113.159,120.331 113.159,104.627C113.159,100.176 113.669,95.839 114.661,91.672C115.257,89.008 116.079,86.457 117.043,83.962C107.065,87.024 98.362,93.033 91.928,100.97C84.671,109.899 80.334,121.323 80.334,133.739Z" style="fill:rgb(252,207,77);"/>
                                <path d="M183.345,154.233C178.639,163.757 171.326,171.751 162.34,177.335C153.638,182.721 143.376,185.839 132.435,185.839C116.731,185.839 102.529,179.49 92.239,169.2C81.95,158.91 75.6,144.709 75.6,129.005C75.6,115.483 80.334,103.039 88.271,93.26C96.321,83.31 107.688,76.139 120.699,73.417C121.975,73.134 123.222,73.956 123.477,75.231C123.591,75.77 123.506,76.309 123.279,76.762C121.521,80.306 120.161,84.047 119.254,87.987C118.346,91.814 117.893,95.783 117.893,99.893C117.893,114.293 123.704,127.304 133.143,136.743C142.583,146.154 155.594,151.994 169.994,151.994C171.865,151.994 173.65,151.909 175.408,151.71C177.222,151.54 179.008,151.257 180.765,150.888C182.041,150.605 183.288,151.427 183.543,152.702C183.657,153.241 183.572,153.78 183.345,154.233ZM159.846,173.339C166.734,169.058 172.573,163.219 176.825,156.302L175.89,156.416C173.906,156.614 171.95,156.728 169.994,156.728C154.29,156.728 140.088,150.35 129.798,140.088C119.509,129.798 113.159,115.597 113.159,99.893C113.159,95.443 113.669,91.106 114.661,86.939C115.257,84.274 116.079,81.723 117.043,79.228C107.065,82.29 98.362,88.299 91.928,96.236C84.671,105.165 80.334,116.589 80.334,129.005C80.334,143.405 86.145,156.416 95.584,165.855C105.024,175.294 118.035,181.106 132.435,181.106C142.498,181.106 151.909,178.271 159.846,173.339Z" style="fill:rgb(54,79,107);fill-rule:nonzero;"/>
                            </g>
                        </g>
                    </g>
                </g>
                <g id="_01n.svg2" serif:id="01n.svg">
                </g>
            </g>
        </g>
    </g>
</svg>
