<?xml version="1.0" encoding="UTF-8" standalone="no"?>
<!DOCTYPE svg PUBLIC "-//W3C//DTD SVG 1.1//EN" "http://www.w3.org/Graphics/SVG/1.1/DTD/svg11.dtd">
<svg width="100%" height="100%" viewBox="0 0 125 125" version="1.1" xmlns="http://www.w3.org/2000/svg" xmlns:xlink="http://www.w3.org/1999/xlink" xml:space="preserve" xmlns:serif="http://www.serif.com/" style="fill-rule:evenodd;clip-rule:evenodd;stroke-linejoin:round;stroke-miterlimit:2;">
    <g id="Layer1" transform="matrix(1,0,0,1,4,2)">
        <g id="_02d.svg" serif:id="02d.svg" transform="matrix(1.03306,0,0,1.03306,58.5,60.5)">
            <g id="Layer11" serif:id="Layer1">
                <g id="_02d.svg1" serif:id="02d.svg" transform="matrix(1,0,0,1,-60.5,-55.5)">
                    <clipPath id="_clip1">
                        <rect x="0" y="0" width="121" height="111"/>
                    </clipPath>
                    <g clip-path="url(#_clip1)">
                        <g transform="matrix(1,0,0,1,-69.5917,-74.2436)">
                            <g>
                                <path d="M97.994,139.068C86.23,141.109 79.115,146.891 76.082,153.666C74.665,156.841 74.154,160.271 74.466,163.644C74.806,167.017 75.997,170.362 77.953,173.31C82.318,179.887 90.539,184.706 102.076,184.706C102.189,184.706 102.302,184.706 102.416,184.734L171.921,184.932C174.756,184.677 177.165,183.713 179.093,182.296C181.191,180.737 182.778,178.611 183.713,176.258C184.11,175.294 184.394,174.274 184.564,173.254C184.762,172.205 184.847,171.156 184.819,170.164C184.762,169.172 184.649,168.151 184.394,167.187C184.139,166.252 183.798,165.345 183.345,164.494C182.268,162.482 180.539,160.724 178.072,159.506C175.776,158.372 172.828,157.691 169.2,157.691L169.2,157.663C167.528,157.663 165.827,157.861 164.154,157.975C162.822,158.06 161.688,157.068 161.603,155.735L161.603,155.395C161.717,153.893 161.915,152.277 161.972,150.775C161.972,150.265 161.943,151.172 161.943,150.208C161.943,148.592 161.745,147.005 161.376,145.502C161.008,143.943 160.413,142.413 159.676,140.967C158.882,139.436 157.918,137.962 156.784,136.63C155.65,135.241 154.318,133.937 152.816,132.746C151.654,131.783 150.378,130.904 149.017,130.11C148.847,130.11 148.706,130.082 148.535,130.025C147.997,129.883 147.543,129.543 147.231,129.146C145.616,128.296 143.915,127.587 142.129,126.992C140.145,126.312 138.047,125.802 135.865,125.461C133.767,125.121 131.556,124.951 129.231,124.951C126.935,124.951 124.724,125.121 122.627,125.461C120.444,125.802 118.346,126.312 116.362,126.992C114.35,127.644 112.45,128.494 110.636,129.458C108.85,130.422 107.178,131.528 105.676,132.746C105.222,133.115 104.825,133.455 104.457,133.767C104.202,133.994 103.861,134.306 103.493,134.674L103.323,134.844C102.954,135.241 102.586,135.609 102.274,135.95L102.189,136.063C101.906,136.375 101.65,136.687 101.339,137.055L100.602,137.991C100.233,138.472 99.694,138.756 99.156,138.841L97.994,139.068Z" style="fill:rgb(230,233,238);"/>
                                <path d="M139.38,88.98L139.38,94.535C140.23,94.819 141.052,95.102 141.846,95.443C142.668,95.783 143.461,96.151 144.255,96.576L148.195,92.636L146.154,85.039L139.38,88.98ZM118.715,110.636C115.654,113.698 113.783,117.893 113.783,122.57L113.783,122.825C114.123,122.683 114.491,122.57 114.831,122.457L114.86,122.457C117.099,121.691 119.452,121.124 121.89,120.728C124.299,120.359 126.765,120.161 129.231,120.161C131.726,120.161 134.192,120.359 136.602,120.728C139.039,121.124 141.392,121.691 143.631,122.457C144.935,122.882 146.211,123.364 147.43,123.902C147.458,123.477 147.487,123.024 147.487,122.57C147.487,117.893 145.587,113.698 142.526,110.636C139.493,107.603 135.269,105.704 130.62,105.704C125.972,105.704 121.748,107.603 118.715,110.636ZM97.03,131.301L95.046,134.759C95.726,134.589 96.435,134.447 97.172,134.334L97.427,134.277L97.597,134.079C97.88,133.71 98.22,133.313 98.617,132.888L98.731,132.746C99.099,132.321 99.468,131.953 99.808,131.584C99.865,131.528 99.921,131.471 99.95,131.414L100.091,131.301L97.03,131.301ZM164.211,131.301L158.627,131.301L158.57,131.471C159.25,132.151 159.874,132.86 160.469,133.569C161.83,135.213 162.992,136.942 163.928,138.784C164.013,138.898 164.069,139.039 164.126,139.153L168.151,138.104L164.211,131.301ZM160.554,104.995L156.614,108.935C157.011,109.729 157.38,110.523 157.72,111.345C158.06,112.139 158.372,112.961 158.627,113.811L164.211,113.811L168.151,107.008L160.554,104.995ZM102.614,113.811C102.869,112.961 103.181,112.139 103.521,111.345C103.861,110.523 104.23,109.729 104.655,108.935L100.687,104.995L93.118,107.036L97.03,113.811L102.614,113.811ZM113.046,92.636L117.014,96.576C117.78,96.18 118.573,95.783 119.395,95.443C120.189,95.131 121.039,94.819 121.89,94.564L121.89,88.951L115.087,85.039L113.046,92.636Z" style="fill:rgb(252,207,77);"/>
                                <path d="M102.302,184.734C102.217,184.734 102.161,184.762 102.076,184.762C101.991,184.762 101.906,184.734 101.82,184.734C88.639,184.649 79.115,178.951 73.956,171.213C71.546,167.584 70.129,163.502 69.704,159.335C69.307,155.169 69.959,150.917 71.717,146.948C74.494,140.769 79.937,135.298 88.356,132.009L93.458,123.137C93.855,122.315 94.677,121.748 95.669,121.748L106.186,121.748C106.894,121.294 107.631,120.869 108.369,120.472C108.624,120.331 108.85,120.217 109.106,120.076C109.106,119.991 109.077,119.877 109.077,119.764C109.02,119.055 108.964,118.403 108.964,117.808C108.964,111.827 111.402,106.413 115.313,102.472C119.225,98.561 124.639,96.151 130.62,96.151C136.602,96.151 142.016,98.561 145.928,102.472C149.839,106.413 152.277,111.827 152.277,117.808C152.277,118.743 152.192,119.735 152.079,120.728C152.022,120.983 151.994,121.266 151.937,121.521C152.844,122.088 153.723,122.655 154.573,123.279C154.913,122.372 155.792,121.748 156.813,121.748L165.6,121.748C166.422,121.748 167.216,122.173 167.669,122.939L173.792,133.54C173.934,133.739 174.019,133.965 174.104,134.22C174.444,135.496 173.679,136.8 172.403,137.14L165.855,138.898C165.912,139.124 165.969,139.351 166.025,139.606C166.507,141.506 166.762,143.461 166.762,145.446C166.762,145.956 166.734,145.247 166.734,146.041C166.734,146.324 166.734,146.58 166.706,146.863L166.677,147.43L166.62,148.224C167.499,148.167 168.293,148.139 169.2,148.139L169.2,148.11C173.622,148.11 177.279,148.989 180.227,150.463C183.628,152.135 186.038,154.63 187.569,157.493C188.192,158.683 188.674,159.931 189.014,161.235C189.354,162.539 189.553,163.899 189.581,165.26C189.638,166.62 189.524,167.981 189.298,169.313C189.071,170.646 188.674,171.978 188.164,173.254C186.888,176.428 184.791,179.291 181.928,181.417C179.32,183.317 176.088,184.62 172.318,184.961L172.318,184.932C172.261,184.932 172.176,184.961 172.12,184.961L102.302,184.734ZM113.783,118.063C114.123,117.921 114.491,117.808 114.831,117.694L114.86,117.694C117.099,116.929 119.452,116.362 121.89,115.965C124.299,115.597 126.765,115.398 129.231,115.398C131.726,115.398 134.192,115.597 136.602,115.965C139.039,116.362 141.392,116.929 143.631,117.694C144.935,118.12 146.211,118.602 147.43,119.14C147.458,118.715 147.487,118.261 147.487,117.808C147.487,113.131 145.587,108.935 142.526,105.874C139.493,102.841 135.269,100.942 130.62,100.942C125.972,100.942 121.748,102.841 118.715,105.874C115.654,108.935 113.783,113.131 113.783,117.808L113.783,118.063ZM149.017,125.348C148.847,125.348 148.706,125.32 148.535,125.263C147.997,125.121 147.543,124.781 147.231,124.384C145.616,123.534 143.915,122.825 142.129,122.23C140.145,121.55 138.047,121.039 135.865,120.699C133.767,120.359 131.556,120.189 129.231,120.189C126.935,120.189 124.724,120.359 122.627,120.699C120.444,121.039 118.346,121.55 116.362,122.23C114.35,122.882 112.45,123.732 110.636,124.696C108.85,125.66 107.178,126.765 105.676,127.984C105.222,128.353 104.825,128.693 104.457,129.005C104.202,129.231 103.861,129.543 103.493,129.912L103.323,130.082C102.954,130.479 102.586,130.847 102.274,131.187L102.189,131.301C101.906,131.613 101.65,131.924 101.339,132.293L100.602,133.228C100.233,133.71 99.694,133.994 99.156,134.079L97.994,134.306C86.23,136.346 79.115,142.129 76.082,148.904C74.665,152.079 74.154,155.509 74.466,158.882C74.806,162.255 75.997,165.6 77.953,168.548C82.318,175.124 90.539,179.943 102.076,179.943C102.189,179.943 102.302,179.943 102.416,179.972L171.921,180.17C174.756,179.915 177.165,178.951 179.093,177.534C181.191,175.975 182.778,173.849 183.713,171.496C184.11,170.532 184.394,169.512 184.564,168.491C184.762,167.443 184.847,166.394 184.819,165.402C184.762,164.409 184.649,163.389 184.394,162.425C184.139,161.49 183.798,160.583 183.345,159.732C182.268,157.72 180.539,155.962 178.072,154.743C175.776,153.609 172.828,152.929 169.2,152.929L169.2,152.901C167.528,152.901 165.827,153.099 164.154,153.213C162.822,153.298 161.688,152.306 161.603,150.973L161.603,150.633C161.717,149.131 161.915,147.515 161.972,146.013C161.972,145.502 161.943,146.409 161.943,145.446C161.943,143.83 161.745,142.243 161.376,140.74C161.008,139.181 160.413,137.65 159.676,136.205C158.882,134.674 157.918,133.2 156.784,131.868C155.65,130.479 154.318,129.175 152.816,127.984C151.654,127.02 150.378,126.142 149.017,125.348ZM139.38,89.773C140.23,90.057 141.052,90.34 141.846,90.68C142.668,91.02 143.461,91.389 144.255,91.814L148.195,87.874L146.154,80.277L139.38,84.217L139.38,89.773ZM140.003,95.102C138.898,94.649 137.735,94.252 136.573,93.969C135.439,93.798 134.561,92.806 134.561,91.587L134.561,82.828C134.561,82.006 134.986,81.184 135.751,80.759L146.381,74.636C146.58,74.494 146.806,74.381 147.061,74.324C148.337,73.984 149.641,74.75 149.981,76.025L153.156,87.846C153.411,88.668 153.213,89.631 152.561,90.283L146.353,96.491C145.587,97.257 144.369,97.427 143.405,96.831C142.328,96.18 141.194,95.613 140.003,95.102ZM160.554,100.233L156.614,104.173C157.011,104.967 157.38,105.761 157.72,106.583C158.06,107.376 158.372,108.198 158.627,109.049L164.211,109.049L168.151,102.246L160.554,100.233ZM151.909,102.076L158.145,95.868C158.712,95.272 159.591,95.017 160.441,95.244L172.403,98.447C172.602,98.504 172.8,98.561 172.97,98.674C174.132,99.354 174.501,100.8 173.849,101.962L167.754,112.507C167.357,113.301 166.535,113.839 165.6,113.839L156.813,113.839C155.735,113.839 154.772,113.102 154.488,112.025C154.205,110.778 153.808,109.587 153.298,108.397C152.844,107.291 152.277,106.186 151.654,105.165C151.002,104.23 151.087,102.926 151.909,102.076ZM95.046,129.997C95.726,129.827 96.435,129.685 97.172,129.572L97.427,129.515L97.597,129.317C97.88,128.948 98.22,128.551 98.617,128.126L98.731,127.984C99.099,127.559 99.468,127.191 99.808,126.822C99.865,126.765 99.921,126.709 99.95,126.652L100.091,126.539L97.03,126.539L95.046,129.997ZM158.57,126.709C159.25,127.389 159.874,128.098 160.469,128.806C161.83,130.45 162.992,132.18 163.928,134.022C164.013,134.135 164.069,134.277 164.126,134.391L168.151,133.342L164.211,126.539L158.627,126.539L158.57,126.709ZM113.046,87.874L117.014,91.814C117.78,91.417 118.573,91.02 119.395,90.68C120.189,90.369 121.039,90.057 121.89,89.802L121.89,84.189L115.087,80.277L113.046,87.874ZM114.888,96.491L108.68,90.283C108.113,89.688 107.83,88.809 108.057,87.959L111.26,76.025C111.317,75.827 111.402,75.628 111.515,75.458C112.167,74.296 113.613,73.899 114.775,74.58L125.263,80.646C126.113,81.014 126.68,81.836 126.68,82.828L126.68,91.616C126.68,92.693 125.943,93.657 124.838,93.94C123.619,94.224 122.4,94.62 121.238,95.131C120.104,95.584 119.027,96.123 117.978,96.746C117.043,97.427 115.739,97.342 114.888,96.491ZM93.118,102.274L97.03,109.049L102.614,109.049C102.869,108.198 103.181,107.376 103.521,106.583C103.861,105.761 104.23,104.967 104.655,104.173L100.687,100.233L93.118,102.274ZM93.572,112.649L87.506,102.104C87.364,101.906 87.222,101.65 87.165,101.367C86.825,100.091 87.591,98.787 88.866,98.447L100.658,95.272C101.48,94.989 102.444,95.187 103.096,95.868L109.332,102.076C110.098,102.841 110.268,104.06 109.672,105.024C109.02,106.101 108.425,107.235 107.943,108.397C107.461,109.531 107.093,110.665 106.809,111.827C106.611,112.989 105.619,113.839 104.428,113.839L95.669,113.839C94.819,113.839 94.025,113.414 93.572,112.649Z" style="fill:rgb(54,79,107);fill-rule:nonzero;"/>
                            </g>
                        </g>
                    </g>
                </g>
                <g id="_02d.svg2" serif:id="02d.svg">
                </g>
            </g>
        </g>
    </g>
</svg>
