<?xml version="1.0" encoding="UTF-8" standalone="no"?>
<!DOCTYPE svg PUBLIC "-//W3C//DTD SVG 1.1//EN" "http://www.w3.org/Graphics/SVG/1.1/DTD/svg11.dtd">
<svg width="100%" height="100%" viewBox="0 0 125 125" version="1.1" xmlns="http://www.w3.org/2000/svg" xmlns:xlink="http://www.w3.org/1999/xlink" xml:space="preserve" xmlns:serif="http://www.serif.com/" style="fill-rule:evenodd;clip-rule:evenodd;stroke-linejoin:round;stroke-miterlimit:2;">
    <g id="Layer1" transform="matrix(1,0,0,1,4,2)">
        <g id="_02n.svg" serif:id="02n.svg" transform="matrix(0.93985,0,0,0.93985,58.5,60.5)">
            <g id="Layer11" serif:id="Layer1">
                <g id="_02n.svg1" serif:id="02n.svg" transform="matrix(1,0,0,1,-66.5,-50.5)">
                    <clipPath id="_clip1">
                        <rect x="0" y="0" width="133" height="101"/>
                    </clipPath>
                    <g clip-path="url(#_clip1)">
                        <g transform="matrix(1,0,0,1,-63.6038,-79.5788)">
                            <g>
                                <path d="M94.677,128.494C81.581,130.791 73.672,137.197 70.299,144.737C68.712,148.309 68.145,152.135 68.513,155.906C68.882,159.647 70.186,163.361 72.397,166.677C77.244,173.991 86.4,179.348 99.213,179.348C99.326,179.348 99.439,179.348 99.553,179.376L176.343,179.603C179.518,179.32 182.211,178.243 184.365,176.655C186.746,174.898 188.504,172.517 189.581,169.852C190.006,168.803 190.318,167.669 190.517,166.507L190.545,166.422C190.743,165.288 190.828,164.154 190.8,163.049C190.743,161.915 190.602,160.809 190.318,159.732C190.035,158.683 189.666,157.691 189.128,156.699C187.937,154.431 185.981,152.447 183.231,151.087C180.652,149.811 177.364,149.046 173.339,149.046L172.488,149.046C170.901,149.131 169.313,149.244 167.726,149.357C166.394,149.443 165.26,148.45 165.175,147.118L165.175,146.778C165.288,145.162 165.458,143.546 165.543,141.931L165.572,141.647C165.572,141.165 165.543,141.931 165.543,141.052C165.543,139.209 165.345,137.452 164.92,135.78C164.494,134.022 163.843,132.321 163.02,130.734C162.142,129.005 161.065,127.389 159.817,125.887C158.513,124.328 157.039,122.882 155.395,121.55C153.694,120.217 151.852,118.97 149.839,117.893C147.855,116.816 145.729,115.909 143.518,115.172C141.307,114.435 138.983,113.868 136.545,113.471C134.22,113.102 131.754,112.904 129.203,112.904C126.652,112.904 124.186,113.102 121.861,113.471C119.424,113.868 117.099,114.435 114.888,115.172C112.677,115.909 110.58,116.816 108.567,117.893C106.554,118.97 104.712,120.217 103.039,121.55C102.529,121.946 102.076,122.343 101.679,122.683C101.339,122.995 100.998,123.335 100.63,123.676C100.573,123.761 100.517,123.846 100.431,123.902C99.95,124.384 99.553,124.809 99.269,125.121C98.929,125.49 98.589,125.915 98.22,126.369L97.398,127.389C97.03,127.871 96.491,128.154 95.953,128.268L94.677,128.494Z" style="fill:rgb(230,233,238);"/>
                                <path d="M86.003,124.611C86.031,125.036 86.088,125.433 86.173,125.83C88.526,125.008 91.077,124.356 93.855,123.874L94.224,123.817L94.45,123.506C94.819,123.08 95.216,122.598 95.698,122.06C96.18,121.521 96.605,121.068 96.973,120.699L97.058,120.614C97.483,120.189 97.965,119.735 98.476,119.254C99.014,118.8 99.524,118.346 100.006,117.95C101.934,116.419 104.031,115.03 106.299,113.811L106.498,113.698C106.016,112.195 105.619,110.665 105.335,109.077C104.91,106.838 104.683,104.513 104.683,102.189C104.683,99.298 105.024,96.491 105.647,93.798C105.902,92.721 106.186,91.644 106.554,90.595C101.14,92.636 96.463,96.066 92.891,100.46C88.441,105.931 85.776,112.961 85.776,120.586C85.776,122.031 85.833,123.364 86.003,124.611Z" style="fill:rgb(252,207,77);"/>
                                <path d="M81.609,122.712C81.439,121.89 81.298,121.068 81.213,120.246C81.043,118.772 80.957,117.269 80.957,115.654C80.957,106.894 84.019,98.816 89.15,92.494C94.394,86.06 101.735,81.411 110.154,79.625C111.458,79.37 112.734,80.192 113.017,81.496C113.131,82.035 113.046,82.573 112.819,83.055C111.742,85.209 110.891,87.534 110.324,89.943C109.786,92.296 109.502,94.734 109.502,97.257C109.502,99.326 109.672,101.339 110.041,103.266C110.268,104.428 110.551,105.591 110.92,106.724C111.713,106.413 112.564,106.101 113.386,105.817C115.852,104.995 118.431,104.372 121.124,103.946C123.761,103.521 126.454,103.294 129.203,103.294C131.953,103.294 134.646,103.521 137.31,103.946C139.975,104.372 142.554,104.995 145.02,105.817C147.543,106.668 149.924,107.688 152.135,108.879C154.375,110.098 156.472,111.487 158.4,113.017C160.271,114.548 162,116.22 163.502,118.006C164.976,119.82 166.28,121.72 167.301,123.732C168.293,125.688 169.087,127.729 169.597,129.827C170.107,131.924 170.362,134.079 170.362,136.261L170.362,137.339L170.334,137.792L170.277,138.416L170.192,139.578C170.901,139.521 171.609,139.493 172.346,139.436L173.339,139.436C178.157,139.436 182.154,140.372 185.386,141.987C189.071,143.83 191.735,146.523 193.38,149.641C194.06,150.945 194.598,152.306 194.967,153.723C195.335,155.169 195.534,156.643 195.591,158.117C195.647,159.591 195.534,161.065 195.279,162.482L195.279,162.567C195.024,164.013 194.598,165.458 194.031,166.876C192.643,170.306 190.346,173.452 187.2,175.748C184.365,177.846 180.85,179.263 176.74,179.603L176.542,179.603L99.439,179.376C99.354,179.376 99.298,179.405 99.213,179.405C99.128,179.405 99.043,179.376 98.957,179.376C84.472,179.291 74.013,173.027 68.372,164.551C65.735,160.583 64.176,156.104 63.723,151.569C63.298,146.976 64.006,142.328 65.934,137.991C68.655,131.868 73.814,126.397 81.609,122.712ZM106.498,108.765C106.016,107.263 105.619,105.732 105.335,104.145C104.91,101.906 104.683,99.581 104.683,97.257C104.683,94.365 105.024,91.559 105.647,88.866C105.902,87.789 106.186,86.712 106.554,85.663C101.14,87.704 96.463,91.134 92.891,95.528C88.441,100.998 85.776,108.028 85.776,115.654C85.776,117.099 85.833,118.431 86.003,119.679C86.031,120.104 86.088,120.501 86.173,120.898C88.526,120.076 91.077,119.424 93.855,118.942L94.224,118.885L94.45,118.573C94.819,118.148 95.216,117.666 95.698,117.128C96.18,116.589 96.605,116.135 96.973,115.767L97.058,115.682C97.483,115.257 97.965,114.803 98.476,114.321C99.014,113.868 99.524,113.414 100.006,113.017C101.934,111.487 104.031,110.098 106.299,108.879L106.498,108.765ZM99.553,174.586L176.343,174.813C179.518,174.529 182.211,173.452 184.365,171.865C186.746,170.107 188.504,167.726 189.581,165.061C190.006,164.013 190.318,162.879 190.517,161.717L190.545,161.631C190.743,160.498 190.828,159.364 190.8,158.258C190.743,157.124 190.602,156.019 190.318,154.942C190.035,153.893 189.666,152.901 189.128,151.909C187.937,149.641 185.981,147.657 183.231,146.296C180.652,145.02 177.364,144.255 173.339,144.255L172.488,144.255C170.901,144.34 169.313,144.454 167.726,144.567C166.394,144.652 165.26,143.66 165.175,142.328L165.175,141.987C165.288,140.372 165.458,138.756 165.543,137.14L165.572,136.857C165.572,136.375 165.543,137.14 165.543,136.261C165.543,134.419 165.345,132.661 164.92,130.989C164.494,129.231 163.843,127.531 163.02,125.943C162.142,124.214 161.065,122.598 159.817,121.096C158.513,119.537 157.039,118.091 155.395,116.759C153.694,115.427 151.852,114.18 149.839,113.102C147.855,112.025 145.729,111.118 143.518,110.381C141.307,109.644 138.983,109.077 136.545,108.68C134.22,108.312 131.754,108.113 129.203,108.113C126.652,108.113 124.186,108.312 121.861,108.68C119.424,109.077 117.099,109.644 114.888,110.381C112.677,111.118 110.58,112.025 108.567,113.102C106.554,114.18 104.712,115.427 103.039,116.759C102.529,117.156 102.076,117.553 101.679,117.893C101.339,118.205 100.998,118.545 100.63,118.885C100.573,118.97 100.517,119.055 100.431,119.112C99.95,119.594 99.553,120.019 99.269,120.331C98.929,120.699 98.589,121.124 98.22,121.578L97.398,122.598C97.03,123.08 96.491,123.364 95.953,123.477L94.677,123.704C81.581,126 73.672,132.406 70.299,139.946C68.712,143.518 68.145,147.345 68.513,151.115C68.882,154.857 70.186,158.57 72.397,161.887C77.244,169.2 86.4,174.557 99.213,174.557C99.326,174.557 99.439,174.557 99.553,174.586Z" style="fill:rgb(54,79,107);fill-rule:nonzero;"/>
                            </g>
                        </g>
                    </g>
                </g>
                <g id="_02n.svg2" serif:id="02n.svg">
                </g>
            </g>
        </g>
    </g>
</svg>
