<?xml version="1.0" encoding="UTF-8" standalone="no"?>
<!DOCTYPE svg PUBLIC "-//W3C//DTD SVG 1.1//EN" "http://www.w3.org/Graphics/SVG/1.1/DTD/svg11.dtd">
<svg width="100%" height="100%" viewBox="0 0 125 125" version="1.1" xmlns="http://www.w3.org/2000/svg" xmlns:xlink="http://www.w3.org/1999/xlink" xml:space="preserve" xmlns:serif="http://www.serif.com/" style="fill-rule:evenodd;clip-rule:evenodd;stroke-linejoin:round;stroke-miterlimit:2;">
    <g id="Layer1" transform="matrix(1,0,0,1,4,2)">
        <g id="_04d.svg" serif:id="04d.svg" transform="matrix(0.862069,0,0,0.862069,58.5,60.5)">
            <g id="Layer11" serif:id="Layer1">
                <g id="_04d.svg1" serif:id="04d.svg" transform="matrix(1,0,0,1,-72.5,-51)">
                    <g transform="matrix(1,0,0,1,-57.6011,-78.8598)">
                        <g>
                            <path d="M64.12,149.216C62.702,152.391 62.192,155.792 62.504,159.165C62.844,162.51 64.006,165.827 65.991,168.775C70.299,175.323 78.52,180.113 90,180.113C90.113,180.113 90.227,180.113 90.34,180.142L159.647,180.34C162.454,180.113 164.863,179.15 166.762,177.732C168.888,176.173 170.447,174.047 171.383,171.694C171.751,170.759 172.035,169.739 172.233,168.718L172.261,168.633C172.431,167.613 172.488,166.62 172.46,165.657C172.431,164.636 172.29,163.644 172.035,162.68C171.808,161.773 171.468,160.894 170.986,160.016C169.937,158.003 168.208,156.274 165.77,155.055C163.474,153.893 160.554,153.241 156.926,153.241L156.926,153.213L156.189,153.213C154.772,153.298 153.326,153.411 151.909,153.524C150.576,153.609 149.414,152.589 149.329,151.257L149.329,150.917C149.443,149.471 149.584,148.025 149.669,146.58L149.698,146.296C149.698,145.814 149.669,146.693 149.669,145.757C149.669,144.142 149.471,142.554 149.102,141.052C148.734,139.493 148.167,137.991 147.43,136.545C146.636,135.014 145.672,133.569 144.539,132.208C143.405,130.847 142.072,129.543 140.598,128.353C139.068,127.134 137.424,126.028 135.609,125.065C133.824,124.101 131.924,123.279 129.94,122.627C127.956,121.975 125.858,121.465 123.676,121.096C121.606,120.784 119.395,120.614 117.099,120.614C114.803,120.614 112.592,120.784 110.494,121.096C108.312,121.465 106.214,121.975 104.258,122.627C102.274,123.279 100.375,124.101 98.561,125.065C96.775,126.028 95.102,127.134 93.6,128.353C93.146,128.721 92.75,129.061 92.409,129.373C92.126,129.6 91.814,129.912 91.417,130.28C91.361,130.394 91.247,130.479 91.162,130.564C90.822,130.904 90.51,131.244 90.227,131.556C89.943,131.868 89.631,132.236 89.291,132.661L88.554,133.569C88.186,134.05 87.647,134.362 87.08,134.447L85.946,134.646L85.861,134.674C74.183,136.743 67.124,142.469 64.12,149.216Z" style="fill:rgb(230,233,238);"/>
                            <path d="M131.443,118.063C133.739,118.828 135.893,119.764 137.906,120.841C139.946,121.918 141.846,123.194 143.603,124.611C145.304,125.972 146.863,127.502 148.224,129.146C149.613,130.791 150.775,132.52 151.71,134.334C152.617,136.12 153.326,137.991 153.808,139.918C154.261,141.817 154.517,143.773 154.517,145.757C154.517,146.239 154.517,145.531 154.488,146.353L154.488,146.75L154.46,147.175L154.403,148.167L183.94,148.252C186.775,147.997 189.156,147.061 191.083,145.644C193.181,144.085 194.74,141.959 195.704,139.606C196.072,138.671 196.356,137.65 196.554,136.63L196.554,136.545C196.724,135.524 196.809,134.532 196.781,133.569C196.753,132.548 196.611,131.556 196.356,130.592C196.129,129.685 195.761,128.806 195.307,127.928C194.23,125.915 192.501,124.157 190.091,122.967C187.795,121.805 184.876,121.124 181.247,121.124C179.546,121.124 177.874,121.294 176.202,121.436C174.869,121.521 173.735,120.501 173.65,119.169C173.622,119.055 173.622,118.942 173.65,118.828C173.764,117.326 173.962,115.739 173.991,114.208L173.991,113.669C173.991,112.054 173.792,110.466 173.424,108.964C173.027,107.405 172.46,105.902 171.723,104.457C170.929,102.926 169.965,101.48 168.86,100.12C167.698,98.759 166.365,97.455 164.891,96.265C163.389,95.046 161.717,93.94 159.931,92.976C158.117,92.013 156.217,91.191 154.233,90.539C152.277,89.858 150.18,89.348 147.997,89.008C145.899,88.696 143.688,88.498 141.392,88.498C139.096,88.498 136.885,88.696 134.816,89.008C132.633,89.348 130.535,89.858 128.551,90.539C126.567,91.191 124.668,92.013 122.882,92.976C121.068,93.94 119.424,95.046 117.893,96.265L116.702,97.285C116.447,97.512 116.107,97.824 115.739,98.192C115.654,98.306 115.569,98.391 115.483,98.476C115.115,98.816 114.831,99.156 114.548,99.439C114.236,99.78 113.924,100.148 113.613,100.573L112.876,101.48C112.479,101.962 111.969,102.274 111.402,102.359L110.239,102.557C108.113,102.954 106.101,103.436 104.258,104.06C97.37,106.328 92.608,110.098 89.83,114.52C87.194,118.687 86.287,123.42 86.939,128.013C87.194,127.729 87.449,127.474 87.676,127.219L87.874,127.02C88.214,126.68 88.639,126.255 89.178,125.773C89.66,125.348 90.142,124.951 90.567,124.611C92.324,123.194 94.224,121.918 96.265,120.841C98.277,119.764 100.431,118.828 102.728,118.063C104.967,117.298 107.32,116.731 109.729,116.362C112.139,115.965 114.605,115.767 117.099,115.767C119.565,115.767 122.031,115.965 124.441,116.362C126.85,116.731 129.203,117.298 131.443,118.063Z" style="fill:rgb(230,233,238);"/>
                            <path d="M154.403,143.348L183.94,143.433C186.775,143.178 189.156,142.243 191.083,140.825C193.181,139.266 194.74,137.14 195.704,134.787C196.072,133.852 196.356,132.831 196.554,131.811L196.554,131.726C196.724,130.706 196.809,129.713 196.781,128.75C196.753,127.729 196.611,126.737 196.356,125.773C196.129,124.866 195.761,123.987 195.307,123.109C194.23,121.096 192.501,119.339 190.091,118.148C187.795,116.986 184.876,116.306 181.247,116.306C179.546,116.306 177.874,116.476 176.202,116.617C174.869,116.702 173.735,115.682 173.65,114.35C173.622,114.236 173.622,114.123 173.65,114.009C173.764,112.507 173.962,110.92 173.991,109.389L173.991,108.85C173.991,107.235 173.792,105.647 173.424,104.145C173.027,102.586 172.46,101.083 171.723,99.638C170.929,98.107 169.965,96.661 168.86,95.301C167.698,93.94 166.365,92.636 164.891,91.446C163.389,90.227 161.717,89.121 159.931,88.157C158.117,87.194 156.217,86.372 154.233,85.72C152.277,85.039 150.18,84.529 147.997,84.189C145.899,83.877 143.688,83.679 141.392,83.679C139.096,83.679 136.885,83.877 134.816,84.189C132.633,84.529 130.535,85.039 128.551,85.72C126.567,86.372 124.668,87.194 122.882,88.157C121.068,89.121 119.424,90.227 117.893,91.446C117.468,91.814 117.071,92.154 116.702,92.466C116.447,92.693 116.107,93.005 115.739,93.373C115.654,93.487 115.569,93.572 115.483,93.657C115.115,93.997 114.831,94.337 114.548,94.62C114.236,94.961 113.924,95.329 113.613,95.754L112.876,96.661C112.479,97.143 111.969,97.455 111.402,97.54L110.239,97.739C108.113,98.135 106.101,98.617 104.258,99.241C97.37,101.509 92.608,105.279 89.83,109.701C87.194,113.868 86.287,118.602 86.939,123.194C87.194,122.91 87.449,122.655 87.676,122.4L87.874,122.202C88.214,121.861 88.639,121.436 89.178,120.954C89.66,120.529 90.142,120.132 90.567,119.792C92.324,118.375 94.224,117.099 96.265,116.022C98.277,114.945 100.431,114.009 102.728,113.244C104.967,112.479 107.32,111.912 109.729,111.543C112.139,111.146 114.605,110.948 117.099,110.948C119.565,110.948 122.031,111.146 124.441,111.543C126.85,111.912 129.203,112.479 131.443,113.244C133.739,114.009 135.893,114.945 137.906,116.022C139.946,117.099 141.846,118.375 143.603,119.792C145.304,121.153 146.863,122.683 148.224,124.328C149.613,125.972 150.775,127.701 151.71,129.515C152.617,131.301 153.326,133.172 153.808,135.099C154.261,136.998 154.517,138.954 154.517,140.939C154.517,141.42 154.517,140.712 154.488,141.534L154.488,141.931L154.46,142.356L154.403,143.348ZM85.946,129.827L85.861,129.855C74.183,131.924 67.124,137.65 64.12,144.397C62.702,147.572 62.192,150.973 62.504,154.346C62.844,157.691 64.006,161.008 65.991,163.956C70.299,170.504 78.52,175.294 90,175.294C90.113,175.294 90.227,175.294 90.34,175.323L159.647,175.521C162.454,175.294 164.863,174.331 166.762,172.913C168.888,171.354 170.447,169.228 171.383,166.876C171.751,165.94 172.035,164.92 172.233,163.899L172.261,163.814C172.431,162.794 172.488,161.802 172.46,160.838C172.431,159.817 172.29,158.825 172.035,157.861C171.808,156.954 171.468,156.076 170.986,155.197C169.937,153.184 168.208,151.455 165.77,150.236C163.474,149.074 160.554,148.422 156.926,148.422L156.926,148.394L156.189,148.394C154.772,148.479 153.326,148.592 151.909,148.706C150.576,148.791 149.414,147.77 149.329,146.438L149.329,146.098C149.443,144.652 149.584,143.206 149.669,141.761L149.698,141.477C149.698,140.995 149.669,141.874 149.669,140.939C149.669,139.323 149.471,137.735 149.102,136.233C148.734,134.674 148.167,133.172 147.43,131.726C146.636,130.195 145.672,128.75 144.539,127.389C143.405,126.028 142.072,124.724 140.598,123.534C139.068,122.315 137.424,121.209 135.609,120.246C133.824,119.282 131.924,118.46 129.94,117.808C127.956,117.156 125.858,116.646 123.676,116.277C121.606,115.965 119.395,115.795 117.099,115.795C114.803,115.795 112.592,115.965 110.494,116.277C108.312,116.646 106.214,117.156 104.258,117.808C102.274,118.46 100.375,119.282 98.561,120.246C96.775,121.209 95.102,122.315 93.6,123.534C93.146,123.902 92.75,124.243 92.409,124.554C92.126,124.781 91.814,125.093 91.417,125.461C91.361,125.575 91.247,125.66 91.162,125.745C90.822,126.085 90.51,126.425 90.227,126.737C89.943,127.049 89.631,127.417 89.291,127.843L88.554,128.75C88.186,129.231 87.647,129.543 87.08,129.628L85.946,129.827ZM82.488,125.603C82.403,125.291 82.346,124.951 82.29,124.611C81.241,118.715 82.318,112.535 85.748,107.15C89.093,101.82 94.706,97.313 102.756,94.649C104.797,93.969 107.036,93.402 109.417,92.976L109.672,92.948L109.843,92.75C110.154,92.353 110.523,91.899 110.948,91.417C111.317,91.02 111.657,90.652 111.997,90.312C112.054,90.227 112.11,90.17 112.195,90.113C112.535,89.773 112.961,89.348 113.499,88.866C113.981,88.441 114.435,88.044 114.888,87.676C116.646,86.287 118.545,85.011 120.586,83.906C122.598,82.828 124.753,81.893 127.049,81.156C129.288,80.391 131.641,79.824 134.05,79.427C136.46,79.058 138.926,78.86 141.392,78.86C143.887,78.86 146.353,79.058 148.734,79.427C151.172,79.824 153.524,80.391 155.764,81.156C158.06,81.893 160.214,82.828 162.198,83.906C164.268,85.011 166.167,86.287 167.924,87.676C169.625,89.065 171.184,90.595 172.545,92.239C173.906,93.883 175.068,95.613 176.003,97.427C176.939,99.213 177.619,101.083 178.101,103.011C178.583,104.91 178.809,106.866 178.809,108.85L178.809,109.446C178.809,109.729 178.809,109.984 178.781,110.268L178.753,110.835L178.668,111.6C179.575,111.543 180.34,111.487 181.247,111.487C185.641,111.487 189.298,112.365 192.246,113.811C195.619,115.512 198.057,117.978 199.559,120.841C200.183,122.003 200.665,123.279 201.005,124.583C201.345,125.887 201.543,127.219 201.6,128.58C201.628,129.94 201.543,131.272 201.317,132.576L201.288,132.661C201.061,133.965 200.693,135.298 200.154,136.573C198.907,139.748 196.781,142.611 193.918,144.709C191.339,146.636 188.107,147.912 184.365,148.252L184.139,148.252L171.439,148.224C173.055,149.584 174.331,151.172 175.266,152.929C175.89,154.091 176.372,155.367 176.712,156.671C177.052,157.975 177.25,159.335 177.279,160.668C177.335,162.028 177.222,163.361 176.995,164.665L176.995,164.75C176.769,166.054 176.372,167.386 175.861,168.69C174.586,171.836 172.488,174.699 169.625,176.797C167.017,178.724 163.814,180.028 160.044,180.34L159.846,180.34L90.227,180.142L89.745,180.142C76.592,180.057 67.096,174.359 61.965,166.62C59.556,163.02 58.11,158.939 57.713,154.8C57.317,150.633 57.969,146.381 59.726,142.413C63.099,134.844 70.526,128.381 82.488,125.603Z" style="fill:rgb(54,79,107);fill-rule:nonzero;"/>
                        </g>
                    </g>
                </g>
                <g id="_04d.svg2" serif:id="04d.svg">
                </g>
            </g>
        </g>
    </g>
</svg>
