<?xml version="1.0" encoding="UTF-8" standalone="no"?>
<!DOCTYPE svg PUBLIC "-//W3C//DTD SVG 1.1//EN" "http://www.w3.org/Graphics/SVG/1.1/DTD/svg11.dtd">
<svg width="100%" height="100%" viewBox="0 0 125 125" version="1.1" xmlns="http://www.w3.org/2000/svg" xmlns:xlink="http://www.w3.org/1999/xlink" xml:space="preserve" xmlns:serif="http://www.serif.com/" style="fill-rule:evenodd;clip-rule:evenodd;stroke-linejoin:round;stroke-miterlimit:2;">
    <g id="Layer1" transform="matrix(1,0,0,1,4,2)">
        <g id="_09d.svg" serif:id="09d.svg" transform="matrix(1.03306,0,0,1.03306,58.5,60.5)">
            <g id="Layer11" serif:id="Layer1">
                <g id="_09d.svg1" serif:id="09d.svg" transform="matrix(1,0,0,1,-60.5,-53)">
                    <clipPath id="_clip1">
                        <rect x="0" y="0" width="121" height="106"/>
                    </clipPath>
                    <g clip-path="url(#_clip1)">
                        <g transform="matrix(1,0,0,1,-69.5917,-76.6772)">
                            <g>
                                <path d="M92.324,161.631C84.728,167.556 82.063,172.63 82.148,176.343C82.233,179.433 84.416,181.587 86.967,182.268C89.518,182.948 92.438,182.183 94.025,179.546C95.896,176.343 96.038,170.617 92.324,161.631Z" style="fill:rgb(67,221,230);"/>
                                <path d="M134.334,161.631C126.709,167.556 124.072,172.63 124.157,176.343C124.214,179.433 126.397,181.587 128.976,182.268C131.528,182.948 134.447,182.183 136.006,179.546C137.877,176.343 138.047,170.617 134.334,161.631Z" style="fill:rgb(67,221,230);"/>
                                <path d="M173.877,161.631C166.252,167.556 163.616,172.63 163.701,176.343C163.757,179.433 165.94,181.587 168.52,182.268C171.071,182.948 173.991,182.183 175.55,179.546C177.42,176.343 177.591,170.617 173.877,161.631Z" style="fill:rgb(67,221,230);"/>
                                <path d="M102.416,146.041L171.921,146.239C174.756,146.013 177.165,145.049 179.093,143.631C181.191,142.072 182.778,139.918 183.713,137.565C184.11,136.602 184.394,135.609 184.564,134.561C184.762,133.512 184.847,132.491 184.819,131.499C184.762,130.479 184.649,129.487 184.394,128.523C184.139,127.616 183.798,126.709 183.345,125.83C182.268,123.817 180.539,122.06 178.072,120.841C175.776,119.679 172.828,118.998 169.2,118.998C167.528,118.998 165.827,119.169 164.154,119.282C162.822,119.367 161.688,118.375 161.603,117.071L161.603,116.702C161.717,115.2 161.915,113.613 161.972,112.082C161.972,111.572 161.943,112.479 161.943,111.543C161.943,109.899 161.745,108.34 161.376,106.838C161.008,105.25 160.413,103.748 159.676,102.302C158.882,100.743 157.918,99.298 156.784,97.937C155.65,96.576 154.318,95.272 152.816,94.054C151.313,92.835 149.641,91.729 147.827,90.765C146.041,89.802 144.113,88.98 142.129,88.299C140.145,87.647 138.047,87.137 135.865,86.797C133.767,86.457 131.556,86.287 129.231,86.287C126.935,86.287 124.724,86.457 122.627,86.797C120.444,87.137 118.346,87.647 116.362,88.299C114.378,88.98 112.45,89.802 110.665,90.765C108.85,91.729 107.178,92.835 105.676,94.054C105.222,94.422 104.825,94.762 104.457,95.074C104.202,95.329 103.861,95.641 103.493,96.009C103.408,96.094 103.323,96.208 103.209,96.265C102.869,96.633 102.557,96.973 102.274,97.257C101.991,97.597 101.679,97.965 101.339,98.391L100.602,99.298C100.233,99.78 99.694,100.091 99.156,100.176L97.994,100.375C86.23,102.444 79.115,108.198 76.082,114.973C74.665,118.176 74.154,121.606 74.466,124.98C74.806,128.353 75.997,131.669 77.953,134.646C82.318,141.194 90.539,146.013 102.076,146.013C102.189,146.013 102.302,146.041 102.416,146.041Z" style="fill:rgb(230,233,238);"/>
                                <path d="M102.302,146.041L101.82,146.041C88.639,145.956 79.115,140.23 73.956,132.491C71.546,128.863 70.129,124.809 69.704,120.643C69.307,116.447 69.959,112.195 71.717,108.255C75.345,100.12 83.622,93.231 97.172,90.85L97.427,90.822L97.597,90.624C97.909,90.198 98.306,89.773 98.731,89.291C99.071,88.894 99.439,88.526 99.78,88.157C99.836,88.101 99.893,88.016 99.95,87.959C100.29,87.619 100.743,87.222 101.282,86.74C101.764,86.287 102.217,85.89 102.671,85.55C104.428,84.132 106.328,82.857 108.369,81.751C110.381,80.674 112.564,79.739 114.86,78.973C117.099,78.236 119.452,77.669 121.89,77.272C124.299,76.904 126.765,76.677 129.231,76.677C131.726,76.677 134.192,76.904 136.602,77.272C139.039,77.669 141.392,78.236 143.631,78.973C145.928,79.739 148.11,80.674 150.094,81.751C152.164,82.857 154.063,84.132 155.82,85.55C157.55,86.91 159.109,88.441 160.469,90.085C161.83,91.729 162.992,93.487 163.928,95.301C164.863,97.087 165.572,98.957 166.025,100.885C166.507,102.813 166.762,104.769 166.762,106.753C166.762,107.235 166.734,106.526 166.734,107.348C166.734,107.631 166.734,107.887 166.706,108.17L166.677,108.737L166.62,109.531C167.499,109.474 168.293,109.417 169.2,109.417C173.622,109.417 177.279,110.296 180.227,111.742C183.628,113.443 186.038,115.909 187.569,118.8C188.192,119.962 188.674,121.209 189.014,122.513C189.354,123.846 189.553,125.178 189.581,126.539C189.638,127.928 189.524,129.288 189.298,130.62C189.071,131.953 188.674,133.285 188.164,134.561C186.888,137.735 184.791,140.598 181.928,142.696C179.32,144.624 176.088,145.928 172.318,146.239L172.12,146.239L102.302,146.041ZM92.324,156.841C84.728,162.765 82.063,167.839 82.148,171.553C82.233,174.643 84.416,176.797 86.967,177.477C89.518,178.157 92.438,177.392 94.025,174.756C95.896,171.553 96.038,165.827 92.324,156.841ZM77.386,171.638C77.244,166.195 80.929,159.024 91.757,151.285C91.928,151.143 92.098,151.03 92.296,150.945C93.487,150.378 94.932,150.917 95.471,152.107C101.197,164.353 100.885,172.46 98.135,177.165C95.329,181.928 90.198,183.288 85.748,182.098C81.298,180.907 77.499,177.165 77.386,171.638ZM173.877,156.841C166.252,162.765 163.616,167.839 163.701,171.553C163.757,174.643 165.94,176.797 168.52,177.477C171.071,178.157 173.991,177.392 175.55,174.756C177.42,171.553 177.591,165.827 173.877,156.841ZM158.91,171.638C158.797,166.195 162.454,159.024 173.31,151.285C173.48,151.143 173.65,151.03 173.849,150.945C175.039,150.378 176.457,150.917 177.024,152.107C182.75,164.353 182.438,172.46 179.688,177.165C176.882,181.928 171.751,183.288 167.272,182.098C162.822,180.907 159.024,177.165 158.91,171.638ZM134.334,156.841C126.709,162.765 124.072,167.839 124.157,171.553C124.214,174.643 126.397,176.797 128.976,177.477C131.528,178.157 134.447,177.392 136.006,174.756C137.877,171.553 138.047,165.827 134.334,156.841ZM119.367,171.638C119.254,166.195 122.91,159.024 133.767,151.285C133.937,151.143 134.107,151.03 134.306,150.945C135.496,150.378 136.913,150.917 137.48,152.107C143.206,164.353 142.894,172.46 140.145,177.165C137.339,181.928 132.208,183.288 127.729,182.098C123.279,180.907 119.48,177.165 119.367,171.638ZM102.416,141.25L171.921,141.449C174.756,141.222 177.165,140.258 179.093,138.841C181.191,137.282 182.778,135.128 183.713,132.775C184.11,131.811 184.394,130.819 184.564,129.77C184.762,128.721 184.847,127.701 184.819,126.709C184.762,125.688 184.649,124.696 184.394,123.732C184.139,122.825 183.798,121.918 183.345,121.039C182.268,119.027 180.539,117.269 178.072,116.05C175.776,114.888 172.828,114.208 169.2,114.208C167.528,114.208 165.827,114.378 164.154,114.491C162.822,114.576 161.688,113.584 161.603,112.28L161.603,111.912C161.717,110.409 161.915,108.822 161.972,107.291C161.972,106.781 161.943,107.688 161.943,106.753C161.943,105.109 161.745,103.55 161.376,102.047C161.008,100.46 160.413,98.957 159.676,97.512C158.882,95.953 157.918,94.507 156.784,93.146C155.65,91.786 154.318,90.482 152.816,89.263C151.313,88.044 149.641,86.939 147.827,85.975C146.041,85.011 144.113,84.189 142.129,83.509C140.145,82.857 138.047,82.346 135.865,82.006C133.767,81.666 131.556,81.496 129.231,81.496C126.935,81.496 124.724,81.666 122.627,82.006C120.444,82.346 118.346,82.857 116.362,83.509C114.378,84.189 112.45,85.011 110.665,85.975C108.85,86.939 107.178,88.044 105.676,89.263C105.222,89.631 104.825,89.972 104.457,90.283C104.202,90.539 103.861,90.85 103.493,91.219C103.408,91.304 103.323,91.417 103.209,91.474C102.869,91.843 102.557,92.183 102.274,92.466C101.991,92.806 101.679,93.175 101.339,93.6L100.602,94.507C100.233,94.989 99.694,95.301 99.156,95.386L97.994,95.584C86.23,97.654 79.115,103.408 76.082,110.183C74.665,113.386 74.154,116.816 74.466,120.189C74.806,123.562 75.997,126.879 77.953,129.855C82.318,136.403 90.539,141.222 102.076,141.222C102.189,141.222 102.302,141.25 102.416,141.25Z" style="fill:rgb(54,79,107);fill-rule:nonzero;"/>
                            </g>
                        </g>
                    </g>
                </g>
                <g id="_09d.svg2" serif:id="09d.svg">
                </g>
            </g>
        </g>
    </g>
</svg>
