<?xml version="1.0" encoding="UTF-8" standalone="no"?>
<!DOCTYPE svg PUBLIC "-//W3C//DTD SVG 1.1//EN" "http://www.w3.org/Graphics/SVG/1.1/DTD/svg11.dtd">
<svg width="100%" height="100%" viewBox="0 0 125 125" version="1.1" xmlns="http://www.w3.org/2000/svg" xmlns:xlink="http://www.w3.org/1999/xlink" xml:space="preserve" xmlns:serif="http://www.serif.com/" style="fill-rule:evenodd;clip-rule:evenodd;stroke-linejoin:round;stroke-miterlimit:2;">
    <g id="Layer1" transform="matrix(1,0,0,1,4,2)">
        <g id="_10d.svg" serif:id="10d.svg" transform="matrix(0.862069,0,0,0.862069,58.5,60.5)">
            <g id="Layer11" serif:id="Layer1">
                <g id="_10d.svg1" serif:id="10d.svg" transform="matrix(1,0,0,1,-72.5,-52)">
                    <g transform="matrix(1,0,0,1,-57.5988,-77.8098)">
                        <g>
                            <path d="M116.022,91.531L116.022,98.22C117.043,98.532 118.035,98.872 118.998,99.298C119.962,99.694 120.926,100.148 121.861,100.658L126.595,95.924L124.157,86.825L116.022,91.531ZM75.033,139.181L68.372,139.181L63.666,147.317L72.737,149.754L77.471,145.02C76.989,144.085 76.535,143.121 76.11,142.157C75.713,141.194 75.345,140.202 75.033,139.181ZM93.883,159.902C92.891,159.506 91.956,159.052 91.02,158.57L86.287,163.304L87.477,167.754L87.506,167.924L87.704,168.576L88.724,172.375L96.86,167.669L96.86,160.98C95.839,160.668 94.847,160.328 93.883,159.902ZM116.22,112.932C115.313,112.422 114.406,111.969 113.443,111.6C111.288,110.75 108.935,110.296 106.441,110.296C101.112,110.296 96.293,112.45 92.778,115.965C89.291,119.452 87.137,124.271 87.137,129.6C87.137,134.929 89.291,139.748 92.778,143.263C96.293,146.75 101.112,148.904 106.441,148.904C108.057,148.904 109.587,148.706 111.033,148.365L115.002,145.446C103.55,136.318 105.25,116.447 116.22,112.932ZM76.11,117.043C76.535,116.079 76.989,115.115 77.471,114.18L72.737,109.446L63.666,111.883L68.372,120.019L75.033,120.019C75.345,118.998 75.713,118.006 76.11,117.043ZM91.02,100.658C91.956,100.148 92.891,99.694 93.883,99.298C94.847,98.901 95.839,98.532 96.86,98.22L96.86,91.531L88.724,86.825L86.287,95.924L91.02,100.658Z" style="fill:rgb(252,207,77);"/>
                            <path d="M130.365,114.378L129.77,115.115C129.402,115.597 128.863,115.88 128.296,115.994L127.361,116.164C125.688,116.447 124.101,116.844 122.655,117.326C122.202,117.694 121.663,117.865 121.124,117.865C115.483,120.076 111.855,123.647 110.069,127.644C108.964,130.139 108.567,132.831 108.822,135.439C109.077,138.104 109.984,140.712 111.543,143.036C112.932,145.106 114.803,146.976 117.184,148.45C117.524,148.564 117.836,148.762 118.12,149.017C121.436,150.86 125.631,151.994 130.592,151.994L130.904,151.994L186.831,152.164C189.014,151.965 190.885,151.228 192.359,150.151C194.003,148.932 195.194,147.288 195.931,145.474C196.214,144.737 196.441,143.943 196.583,143.15C196.724,142.328 196.809,141.534 196.781,140.769C196.753,139.975 196.639,139.209 196.441,138.472C196.271,137.792 195.987,137.083 195.647,136.403C194.825,134.872 193.493,133.54 191.622,132.605C189.836,131.698 187.54,131.159 184.677,131.159L184.082,131.159L180.652,131.414C179.32,131.499 178.157,130.479 178.072,129.146L178.072,128.806C178.157,127.644 178.271,126.482 178.356,125.291L178.356,124.668C178.356,123.392 178.214,122.173 177.902,120.983C177.619,119.764 177.165,118.573 176.57,117.439C175.946,116.22 175.181,115.087 174.302,114.009C173.395,112.932 172.346,111.912 171.184,110.976C169.965,109.984 168.661,109.134 167.244,108.369C165.798,107.575 164.296,106.923 162.709,106.413C161.15,105.874 159.477,105.477 157.72,105.194C156.076,104.939 154.318,104.797 152.476,104.797C150.633,104.797 148.876,104.939 147.203,105.194C145.474,105.477 143.802,105.874 142.243,106.413C140.655,106.923 139.153,107.575 137.707,108.369C136.29,109.134 134.957,109.984 133.767,110.976C133.398,111.26 133.087,111.515 132.831,111.77C132.633,111.94 132.378,112.167 132.066,112.479L131.811,112.734C131.556,113.017 131.301,113.272 131.102,113.499C130.876,113.754 130.62,114.038 130.365,114.378Z" style="fill:rgb(230,233,238);"/>
                            <path d="M188.22,165.657C182.636,170.135 180.652,173.934 180.709,176.712C180.765,178.98 182.381,180.539 184.252,181.049C186.123,181.531 188.249,180.992 189.383,179.065C190.8,176.655 190.913,172.375 188.22,165.657ZM122.513,165.657C116.901,170.135 114.945,173.934 115.002,176.712C115.058,178.98 116.646,180.539 118.517,181.049C120.387,181.531 122.542,180.992 123.676,179.065C125.065,176.683 125.206,172.375 122.513,165.657ZM156.359,165.657C150.746,170.135 148.791,173.934 148.847,176.712C148.904,178.98 150.491,180.539 152.391,181.049C154.233,181.531 156.387,180.992 157.521,179.065C158.91,176.683 159.052,172.375 156.359,165.657Z" style="fill:rgb(67,221,230);"/>
                            <path d="M130.791,151.994L130.365,151.994C124.866,151.965 120.161,150.718 116.277,148.706C114.973,149.272 113.613,149.754 112.167,150.094C110.296,150.548 108.397,150.803 106.441,150.803C99.78,150.803 93.742,148.082 89.376,143.717C85.011,139.351 82.318,133.313 82.318,126.652C82.318,119.991 85.011,113.953 89.376,109.587C93.742,105.222 99.78,102.529 106.441,102.529C109.502,102.529 112.45,103.096 115.172,104.173C117.468,105.052 119.594,106.299 121.493,107.802C123.08,107.291 124.753,106.894 126.539,106.583L126.567,106.583L126.595,106.554C126.85,106.214 127.162,105.874 127.502,105.449C127.814,105.137 128.069,104.854 128.353,104.57C128.409,104.513 128.466,104.428 128.523,104.372C128.778,104.117 129.146,103.776 129.6,103.351C130.025,103.011 130.394,102.671 130.762,102.387C132.18,101.225 133.739,100.205 135.439,99.298C137.055,98.419 138.841,97.654 140.712,97.03C142.554,96.406 144.482,95.924 146.466,95.613C148.422,95.301 150.435,95.131 152.476,95.131C154.488,95.131 156.501,95.301 158.485,95.613C160.469,95.924 162.397,96.406 164.211,97.03C166.11,97.654 167.868,98.419 169.512,99.298C171.184,100.205 172.772,101.225 174.189,102.387C175.606,103.521 176.882,104.769 178.016,106.129C179.121,107.49 180.085,108.907 180.85,110.409C181.616,111.883 182.211,113.414 182.58,115.03C182.976,116.589 183.175,118.205 183.175,119.849L183.175,120.671L183.146,121.039L183.118,121.578C183.657,121.55 184.139,121.521 184.677,121.521C188.306,121.521 191.339,122.23 193.776,123.449C196.611,124.866 198.624,126.935 199.899,129.317C200.438,130.309 200.835,131.357 201.118,132.435C201.402,133.54 201.543,134.674 201.6,135.78C201.628,136.942 201.543,138.076 201.345,139.181C201.146,140.287 200.835,141.364 200.409,142.441C199.361,145.077 197.603,147.458 195.194,149.216C193.039,150.803 190.375,151.88 187.228,152.164L187.03,152.164L130.791,151.994ZM111.402,145.332C109.871,143.972 108.595,142.469 107.518,140.882C105.534,137.877 104.343,134.532 104.031,131.074C103.691,127.644 104.23,124.129 105.676,120.869C107.575,116.589 111.061,112.734 116.22,109.984C115.313,109.474 114.406,109.02 113.443,108.652C111.288,107.802 108.935,107.348 106.441,107.348C101.112,107.348 96.293,109.502 92.778,113.017C89.291,116.504 87.137,121.323 87.137,126.652C87.137,131.981 89.291,136.8 92.778,140.315C96.293,143.802 101.112,145.956 106.441,145.956C108.057,145.956 109.587,145.757 111.033,145.417C111.146,145.389 111.288,145.361 111.402,145.332ZM117.184,143.631C117.524,143.745 117.836,143.943 118.12,144.198C121.436,146.041 125.631,147.175 130.592,147.175L130.904,147.175L186.831,147.345C189.014,147.146 190.885,146.409 192.359,145.332C194.003,144.113 195.194,142.469 195.931,140.655C196.214,139.918 196.441,139.124 196.583,138.331C196.724,137.509 196.809,136.715 196.781,135.95C196.753,135.156 196.639,134.391 196.441,133.654C196.271,132.973 195.987,132.265 195.647,131.584C194.825,130.054 193.493,128.721 191.622,127.786C189.836,126.879 187.54,126.34 184.677,126.34L184.082,126.34L180.652,126.595C179.32,126.68 178.157,125.66 178.072,124.328L178.072,123.987C178.157,122.825 178.271,121.663 178.356,120.472L178.356,119.849C178.356,118.573 178.214,117.354 177.902,116.164C177.619,114.945 177.165,113.754 176.57,112.62C175.946,111.402 175.181,110.268 174.302,109.191C173.395,108.113 172.346,107.093 171.184,106.157C169.965,105.165 168.661,104.315 167.244,103.55C165.798,102.756 164.296,102.104 162.709,101.594C161.15,101.055 159.477,100.658 157.72,100.375C156.076,100.12 154.318,99.978 152.476,99.978C150.633,99.978 148.876,100.12 147.203,100.375C145.474,100.658 143.802,101.055 142.243,101.594C140.655,102.104 139.153,102.756 137.707,103.55C136.29,104.315 134.957,105.165 133.767,106.157C133.398,106.441 133.087,106.696 132.831,106.951C132.633,107.121 132.378,107.348 132.066,107.66L131.811,107.915C131.556,108.198 131.301,108.454 131.102,108.68C130.876,108.935 130.62,109.219 130.365,109.559L129.77,110.296C129.402,110.778 128.863,111.061 128.296,111.175L127.361,111.345C125.688,111.628 124.101,112.025 122.655,112.507C122.202,112.876 121.663,113.046 121.124,113.046C115.483,115.257 111.855,118.828 110.069,122.825C108.964,125.32 108.567,128.013 108.822,130.62C109.077,133.285 109.984,135.893 111.543,138.217C112.932,140.287 114.803,142.157 117.184,143.631ZM116.022,95.272C117.043,95.584 118.035,95.924 118.998,96.35C119.962,96.746 120.926,97.2 121.861,97.71L126.595,92.976L124.157,83.877L116.022,88.583L116.022,95.272ZM117.156,100.8C115.852,100.261 114.548,99.808 113.216,99.496C112.054,99.298 111.175,98.306 111.175,97.087L111.175,87.194C111.175,86.372 111.6,85.55 112.394,85.124L124.356,78.208C124.583,78.066 124.809,77.953 125.065,77.896C126.34,77.556 127.672,78.321 128.013,79.597L131.584,92.948C131.839,93.798 131.641,94.734 130.989,95.414L123.987,102.416L123.959,102.416C123.194,103.181 121.975,103.351 121.011,102.756C119.792,102.019 118.488,101.367 117.156,100.8ZM72.737,146.806L77.471,142.072C76.989,141.137 76.535,140.173 76.11,139.209C75.713,138.246 75.345,137.254 75.033,136.233L68.372,136.233L63.666,144.369L72.737,146.806ZM82.205,144.198L75.175,151.2C74.58,151.795 73.701,152.05 72.85,151.824L59.386,148.224L59.386,148.195C59.187,148.167 58.989,148.082 58.819,147.969C57.657,147.317 57.26,145.843 57.912,144.68L64.772,132.803C65.169,131.981 65.991,131.386 66.983,131.386L76.876,131.386L76.876,131.414C77.953,131.414 78.945,132.151 79.228,133.257C79.569,134.646 80.022,136.006 80.561,137.367C81.099,138.643 81.751,139.89 82.46,141.08C83.14,142.016 83.055,143.348 82.205,144.198ZM88.724,169.427L96.86,164.721L96.86,158.031C95.839,157.72 94.847,157.38 93.883,156.954C92.891,156.557 91.956,156.104 91.02,155.622L86.287,160.356L87.477,164.806L87.506,164.976L87.704,165.628L88.724,169.427ZM100.488,168.208L88.583,175.068C88.356,175.238 88.101,175.351 87.817,175.408C86.542,175.776 85.209,175.011 84.869,173.707L83.055,166.876L82.885,166.252L82.828,166.054L81.298,160.356C81.014,159.534 81.213,158.57 81.893,157.918L88.894,150.888C89.688,150.123 90.907,149.953 91.871,150.548C93.09,151.285 94.394,151.965 95.726,152.504C97.002,153.043 98.334,153.496 99.666,153.808C100.828,154.006 101.707,154.998 101.707,156.217L101.707,166.11L101.679,166.11C101.679,166.961 101.254,167.754 100.488,168.208ZM86.287,92.976L91.02,97.71C91.956,97.2 92.891,96.746 93.883,96.35C94.847,95.953 95.839,95.584 96.86,95.272L96.86,88.583L88.724,83.877L86.287,92.976ZM88.894,102.416L81.893,95.414C81.298,94.819 81.043,93.94 81.269,93.061L84.869,79.597C84.926,79.398 85.011,79.2 85.124,79.03C85.776,77.868 87.25,77.471 88.413,78.123L100.29,84.983C101.112,85.38 101.707,86.202 101.707,87.194L101.707,97.115L101.679,97.115C101.679,98.192 100.942,99.184 99.836,99.439C98.447,99.78 97.058,100.233 95.726,100.8C94.422,101.339 93.203,101.962 92.013,102.671C91.077,103.351 89.745,103.266 88.894,102.416ZM63.666,108.935L68.372,117.071L75.033,117.071C75.345,116.05 75.713,115.058 76.11,114.094C76.535,113.131 76.989,112.167 77.471,111.231L72.737,106.498L63.666,108.935ZM64.885,120.699L58.025,108.794C57.883,108.567 57.742,108.312 57.685,108.057C57.345,106.753 58.11,105.449 59.386,105.08L72.709,101.509C73.559,101.254 74.523,101.452 75.175,102.104L82.205,109.134C82.97,109.899 83.14,111.118 82.545,112.082C81.808,113.301 81.128,114.605 80.561,115.965C80.05,117.241 79.597,118.545 79.257,119.877C79.087,121.039 78.094,121.918 76.876,121.918L66.983,121.918C66.161,121.918 65.339,121.465 64.885,120.699ZM122.513,161.008C116.901,165.487 114.945,169.285 115.002,172.063C115.058,174.331 116.646,175.89 118.517,176.4C120.387,176.882 122.542,176.343 123.676,174.416C125.065,172.035 125.206,167.726 122.513,161.008ZM110.183,172.148C110.098,167.641 113.074,161.717 121.975,155.367C122.117,155.225 122.287,155.112 122.485,155.027C123.704,154.46 125.15,154.998 125.688,156.217C130.394,166.252 130.11,172.942 127.814,176.854C125.433,180.879 121.068,182.069 117.298,181.049C113.499,180.028 110.296,176.854 110.183,172.148ZM188.22,161.008C182.636,165.487 180.652,169.285 180.709,172.063C180.765,174.331 182.381,175.89 184.252,176.4C186.123,176.882 188.249,176.343 189.383,174.416C190.8,172.006 190.913,167.726 188.22,161.008ZM175.918,172.148C175.805,167.641 178.809,161.717 187.682,155.367C187.852,155.225 188.022,155.112 188.22,155.027C189.411,154.46 190.857,154.998 191.424,156.217C196.101,166.252 195.817,172.942 193.55,176.854C191.169,180.879 186.803,182.069 183.005,181.049C179.235,180.028 176.003,176.854 175.918,172.148ZM156.359,161.008C150.746,165.487 148.791,169.285 148.847,172.063C148.904,174.331 150.491,175.89 152.391,176.4C154.233,176.882 156.387,176.343 157.521,174.416C158.91,172.035 159.052,167.726 156.359,161.008ZM144.028,172.148C143.943,167.641 146.948,161.717 155.82,155.367C155.962,155.225 156.132,155.112 156.331,155.027C157.55,154.46 158.995,154.998 159.534,156.217C164.239,166.252 163.956,172.942 161.66,176.854C159.279,180.879 154.913,182.069 151.143,181.049C147.345,180.028 144.142,176.854 144.028,172.148Z" style="fill:rgb(54,79,107);fill-rule:nonzero;"/>
                        </g>
                    </g>
                </g>
                <g id="_10d.svg2" serif:id="10d.svg">
                </g>
            </g>
        </g>
    </g>
</svg>
