<?xml version="1.0" encoding="UTF-8" standalone="no"?>
<!DOCTYPE svg PUBLIC "-//W3C//DTD SVG 1.1//EN" "http://www.w3.org/Graphics/SVG/1.1/DTD/svg11.dtd">
<svg width="100%" height="100%" viewBox="0 0 125 125" version="1.1" xmlns="http://www.w3.org/2000/svg" xmlns:xlink="http://www.w3.org/1999/xlink" xml:space="preserve" xmlns:serif="http://www.serif.com/" style="fill-rule:evenodd;clip-rule:evenodd;stroke-linejoin:round;stroke-miterlimit:2;">
    <g id="Layer1" transform="matrix(1,0,0,1,4,2)">
        <g id="_10n.svg" serif:id="10n.svg" transform="matrix(0.972222,0,0,0.972222,58.5,60.5)">
            <g id="Layer11" serif:id="Layer1">
                <g id="_10n.svg1" serif:id="10n.svg" transform="matrix(1,0,0,1,-57,-60)">
                    <clipPath id="_clip1">
                        <rect x="0" y="0" width="114" height="120"/>
                    </clipPath>
                    <g clip-path="url(#_clip1)">
                        <g transform="matrix(1,0,0,1,-73.029,-69.6009)">
                            <g>
                                <path d="M96.123,186.86C97.852,183.912 97.994,178.611 94.592,170.306C87.591,175.805 85.153,180.482 85.238,183.912C85.294,186.746 87.307,188.702 89.66,189.354C92.013,189.978 94.677,189.269 96.123,186.86Z" style="fill:rgb(67,221,230);"/>
                                <path d="M134.079,170.306C127.077,175.805 124.639,180.482 124.724,183.912C124.781,186.746 126.794,188.702 129.146,189.354C131.499,189.978 134.164,189.269 135.609,186.86C137.339,183.912 137.48,178.611 134.079,170.306Z" style="fill:rgb(67,221,230);"/>
                                <path d="M171.269,170.306C164.268,175.805 161.83,180.482 161.915,183.912C161.972,186.746 163.984,188.702 166.337,189.354C168.69,189.978 171.354,189.269 172.8,186.86C174.529,183.912 174.671,178.611 171.269,170.306Z" style="fill:rgb(67,221,230);"/>
                                <path d="M104.06,155.31L169.37,155.509C172.035,155.282 174.274,154.375 176.06,153.071C178.016,151.625 179.49,149.641 180.369,147.43C180.709,146.551 180.992,145.616 181.162,144.624C181.332,143.66 181.417,142.696 181.389,141.761C181.332,140.825 181.219,139.918 180.992,139.011C180.765,138.161 180.425,137.339 180,136.517C179.008,134.646 177.392,133.002 175.124,131.868C172.998,130.819 170.249,130.167 166.847,130.167L166.167,130.167C164.806,130.252 163.446,130.365 162.113,130.45C160.781,130.535 159.647,129.543 159.562,128.211C159.534,128.098 159.534,127.984 159.562,127.871C159.676,126.454 159.846,124.951 159.874,123.534C159.902,122.967 159.874,123.846 159.874,123.024C159.874,121.493 159.704,120.019 159.364,118.602C158.995,117.156 158.457,115.739 157.748,114.378C157.011,112.932 156.104,111.572 155.055,110.324C153.978,109.02 152.731,107.802 151.342,106.696C149.924,105.534 148.365,104.513 146.693,103.606C144.992,102.699 143.206,101.906 141.335,101.31C139.493,100.687 137.509,100.205 135.468,99.865C133.512,99.553 131.443,99.411 129.26,99.411C127.106,99.411 125.036,99.553 123.08,99.865C121.011,100.205 119.055,100.687 117.184,101.31C115.313,101.906 113.528,102.699 111.855,103.606C110.154,104.513 108.595,105.534 107.178,106.696C106.753,107.036 106.384,107.348 106.044,107.631C105.817,107.858 105.506,108.142 105.137,108.51C105.109,108.567 105.052,108.624 104.995,108.652C104.57,109.077 104.258,109.417 104.031,109.672C103.748,109.984 103.465,110.324 103.153,110.721L102.444,111.6C102.076,112.082 101.537,112.365 100.998,112.45L100.998,112.479L99.921,112.649C88.894,114.576 82.233,119.991 79.427,126.312C78.094,129.288 77.613,132.491 77.896,135.638C78.208,138.784 79.313,141.874 81.156,144.652C85.209,150.775 92.92,155.282 103.72,155.282C103.833,155.282 103.946,155.31 104.06,155.31Z" style="fill:rgb(230,233,238);"/>
                                <path d="M104.173,103.068C105.817,101.764 107.603,100.573 109.502,99.524C109.106,98.277 108.794,97.002 108.539,95.669C108.198,93.77 108.028,91.843 108.028,89.915C108.028,87.42 108.312,85.011 108.85,82.687C109.02,81.978 109.191,81.298 109.417,80.646C105.165,82.346 101.452,85.124 98.589,88.639C94.847,93.26 92.608,99.156 92.608,105.591C92.608,106.696 92.665,107.773 92.806,108.822L92.891,109.559C94.819,108.935 96.888,108.425 99.071,108.057L99.269,108L99.383,107.858C99.694,107.49 100.035,107.065 100.46,106.611L101.48,105.506C101.537,105.449 101.565,105.392 101.622,105.364C101.934,105.052 102.359,104.655 102.869,104.202C103.323,103.776 103.776,103.408 104.173,103.068Z" style="fill:rgb(252,207,77);"/>
                                <path d="M88.356,106.469C88.214,105.817 88.129,105.137 88.044,104.485C87.902,103.209 87.817,101.962 87.817,100.687C87.817,93.118 90.454,86.173 94.876,80.731C99.383,75.175 105.732,71.178 112.961,69.647C114.265,69.392 115.54,70.214 115.795,71.518C115.909,72.057 115.824,72.595 115.597,73.049C114.718,74.891 114.009,76.819 113.528,78.86C113.074,80.816 112.819,82.885 112.819,85.011C112.819,86.712 112.961,88.328 113.244,89.887C113.414,90.822 113.641,91.729 113.896,92.608C114.491,92.381 115.087,92.183 115.682,91.984C117.808,91.276 120.019,90.709 122.315,90.369C124.583,90 126.907,89.802 129.26,89.802C131.613,89.802 133.937,90 136.205,90.369C138.501,90.709 140.74,91.276 142.838,91.984C145.02,92.693 147.061,93.572 148.961,94.592C150.888,95.641 152.702,96.831 154.346,98.164C155.962,99.468 157.436,100.913 158.74,102.472C160.016,104.031 161.121,105.676 162.028,107.405C162.879,109.077 163.559,110.835 164.013,112.677C164.438,114.491 164.693,116.334 164.693,118.233C164.693,118.63 164.665,117.921 164.665,118.772L164.665,119.169L164.636,119.565L164.551,120.671C165.345,120.614 166.054,120.586 166.847,120.586C171.014,120.586 174.472,121.408 177.279,122.797C180.482,124.413 182.806,126.765 184.252,129.487C184.819,130.592 185.301,131.783 185.613,133.03C185.924,134.249 186.123,135.553 186.151,136.828C186.208,138.132 186.094,139.436 185.896,140.683C185.669,141.931 185.301,143.206 184.791,144.425C183.6,147.43 181.587,150.151 178.894,152.135C176.4,153.95 173.367,155.197 169.795,155.509L169.795,155.48C169.71,155.509 169.654,155.509 169.597,155.509L103.918,155.31L103.465,155.31C91.02,155.225 82.035,149.839 77.159,142.526C74.891,139.096 73.531,135.241 73.134,131.301C72.765,127.332 73.361,123.307 75.033,119.565C77.386,114.321 81.751,109.644 88.356,106.469ZM94.592,165.543C87.591,171.043 85.153,175.72 85.238,179.15C85.294,181.984 87.307,183.94 89.66,184.592C92.013,185.216 94.677,184.507 96.123,182.098C97.852,179.15 97.994,173.849 94.592,165.543ZM80.447,179.235C80.334,174.076 83.792,167.301 94.025,159.987C94.195,159.846 94.365,159.732 94.564,159.647C95.754,159.08 97.2,159.619 97.739,160.809C103.153,172.375 102.841,180.057 100.233,184.507C97.569,189.043 92.665,190.346 88.413,189.213C84.161,188.079 80.561,184.507 80.447,179.235ZM171.269,165.543C164.268,171.043 161.83,175.72 161.915,179.15C161.972,181.984 163.984,183.94 166.337,184.592C168.69,185.216 171.354,184.507 172.8,182.098C174.529,179.15 174.671,173.849 171.269,165.543ZM157.124,179.235C157.011,174.076 160.469,167.301 170.731,159.987C170.872,159.846 171.043,159.732 171.241,159.647C172.46,159.08 173.877,159.619 174.444,160.809C179.83,172.375 179.546,180.057 176.91,184.507C174.246,189.043 169.342,190.346 165.09,189.213C160.866,188.079 157.238,184.507 157.124,179.235ZM134.079,165.543C127.077,171.043 124.639,175.72 124.724,179.15C124.781,181.984 126.794,183.94 129.146,184.592C131.499,185.216 134.164,184.507 135.609,182.098C137.339,179.15 137.48,173.849 134.079,165.543ZM119.934,179.235C119.82,174.076 123.279,167.301 133.54,159.987C133.682,159.846 133.852,159.732 134.05,159.647C135.269,159.08 136.687,159.619 137.254,160.809C142.639,172.375 142.356,180.057 139.72,184.507C137.055,189.043 132.18,190.346 127.899,189.213C123.676,188.079 120.047,184.507 119.934,179.235ZM109.502,94.62C109.106,93.373 108.794,92.098 108.539,90.765C108.198,88.866 108.028,86.939 108.028,85.011C108.028,82.517 108.312,80.107 108.85,77.783C109.02,77.074 109.191,76.394 109.417,75.742C105.165,77.443 101.452,80.22 98.589,83.735C94.847,88.356 92.608,94.252 92.608,100.687C92.608,101.792 92.665,102.869 92.806,103.918C92.835,104.173 92.863,104.428 92.891,104.655C94.819,104.031 96.888,103.521 99.071,103.153L99.269,103.096L99.383,102.954C99.694,102.586 100.035,102.161 100.46,101.707C100.857,101.282 101.197,100.913 101.48,100.602C101.537,100.545 101.565,100.488 101.622,100.46C101.934,100.148 102.359,99.751 102.869,99.298C103.323,98.872 103.776,98.504 104.173,98.164C105.817,96.86 107.603,95.669 109.502,94.62ZM104.06,150.52L169.37,150.718C172.035,150.491 174.274,149.584 176.06,148.28C178.016,146.835 179.49,144.85 180.369,142.639C180.709,141.761 180.992,140.825 181.162,139.833C181.332,138.869 181.417,137.906 181.389,136.97C181.332,136.035 181.219,135.128 180.992,134.22C180.765,133.37 180.425,132.548 180,131.726C179.008,129.855 177.392,128.211 175.124,127.077C172.998,126.028 170.249,125.376 166.847,125.376L166.167,125.376C164.806,125.461 163.446,125.575 162.113,125.66C160.781,125.745 159.647,124.753 159.562,123.42C159.534,123.307 159.534,123.194 159.562,123.08C159.676,121.663 159.846,120.161 159.874,118.743C159.902,118.176 159.874,119.055 159.874,118.233C159.874,116.702 159.704,115.228 159.364,113.811C158.995,112.365 158.457,110.948 157.748,109.587C157.011,108.142 156.104,106.781 155.055,105.534C153.978,104.23 152.731,103.011 151.342,101.906C149.924,100.743 148.365,99.723 146.693,98.816C144.992,97.909 143.206,97.115 141.335,96.52C139.493,95.896 137.509,95.414 135.468,95.074C133.512,94.762 131.443,94.62 129.26,94.62C127.106,94.62 125.036,94.762 123.08,95.074C121.011,95.414 119.055,95.896 117.184,96.52C115.313,97.115 113.528,97.909 111.855,98.816C110.154,99.723 108.595,100.743 107.178,101.906C106.753,102.246 106.384,102.557 106.044,102.841C105.817,103.068 105.506,103.351 105.137,103.72C105.109,103.776 105.052,103.833 104.995,103.861C104.57,104.287 104.258,104.627 104.031,104.882C103.748,105.194 103.465,105.534 103.153,105.931L102.444,106.809C102.076,107.291 101.537,107.575 100.998,107.66L100.998,107.688L99.921,107.858C88.894,109.786 82.233,115.2 79.427,121.521C78.094,124.498 77.613,127.701 77.896,130.847C78.208,133.994 79.313,137.083 81.156,139.861C85.209,145.984 92.92,150.491 103.72,150.491C103.833,150.491 103.946,150.52 104.06,150.52Z" style="fill:rgb(54,79,107);fill-rule:nonzero;"/>
                            </g>
                        </g>
                    </g>
                </g>
                <g id="_10n.svg2" serif:id="10n.svg">
                </g>
            </g>
        </g>
    </g>
</svg>
