<?xml version="1.0" encoding="UTF-8" standalone="no"?>
<!DOCTYPE svg PUBLIC "-//W3C//DTD SVG 1.1//EN" "http://www.w3.org/Graphics/SVG/1.1/DTD/svg11.dtd">
<svg width="100%" height="100%" viewBox="0 0 125 125" version="1.1" xmlns="http://www.w3.org/2000/svg" xmlns:xlink="http://www.w3.org/1999/xlink" xml:space="preserve" xmlns:serif="http://www.serif.com/" style="fill-rule:evenodd;clip-rule:evenodd;stroke-linejoin:round;stroke-miterlimit:2;">
    <g id="Layer1" transform="matrix(1,0,0,1,4,2)">
        <g id="_11d.svg" serif:id="11d.svg" transform="matrix(1.03306,0,0,1.03306,58.5,60.5)">
            <g id="Layer11" serif:id="Layer1">
                <g id="_11d.svg1" serif:id="11d.svg" transform="matrix(1,0,0,1,-60.5,-57.5)">
                    <g transform="matrix(1,0,0,1,-69.5879,-73.7008)">
                        <g>
                            <path d="M74.466,122.003C74.806,125.376 75.997,128.693 77.953,131.669C82.318,138.217 90.539,143.036 102.076,143.036C102.189,143.036 102.302,143.036 102.416,143.065L171.921,143.263C174.756,143.036 177.165,142.072 179.093,140.655C181.191,139.096 182.778,136.942 183.713,134.589C184.11,133.625 184.394,132.633 184.564,131.584C184.762,130.535 184.847,129.515 184.819,128.494C184.762,127.502 184.649,126.51 184.394,125.546C184.139,124.611 183.798,123.704 183.345,122.854C182.268,120.841 180.539,119.083 178.072,117.865C175.776,116.702 172.828,116.022 169.2,116.022C167.528,116.022 165.827,116.192 164.154,116.306C162.822,116.391 161.688,115.398 161.603,114.094L161.603,113.726C161.717,112.224 161.915,110.608 161.972,109.106C161.972,108.595 161.943,109.502 161.943,108.567C161.943,106.923 161.745,105.364 161.376,103.833C161.008,102.274 160.413,100.743 159.676,99.298C158.882,97.767 157.918,96.321 156.784,94.961C155.65,93.572 154.318,92.296 152.816,91.077C151.313,89.858 149.641,88.753 147.827,87.789C146.041,86.825 144.113,86.003 142.129,85.323C140.145,84.671 138.047,84.161 135.865,83.82C133.767,83.48 131.556,83.31 129.231,83.31C126.935,83.31 124.724,83.48 122.627,83.82C120.444,84.161 118.346,84.671 116.362,85.323C114.35,86.003 112.45,86.825 110.636,87.789C108.85,88.753 107.178,89.858 105.676,91.077C105.222,91.446 104.825,91.786 104.457,92.098C104.202,92.353 103.861,92.665 103.493,93.033L103.238,93.288C102.869,93.657 102.557,93.969 102.274,94.28L102.274,94.309C101.934,94.677 101.622,95.046 101.339,95.414L100.602,96.321C100.233,96.803 99.694,97.087 99.156,97.2L97.994,97.398C86.23,99.468 79.115,105.222 76.082,111.997C74.665,115.2 74.154,118.63 74.466,122.003Z" style="fill:rgb(230,233,238);"/>
                            <path d="M84.189,159.279C76.847,165.033 74.296,169.909 74.381,173.509C74.438,176.513 76.564,178.554 79.03,179.235C81.496,179.887 84.302,179.15 85.833,176.598C87.647,173.509 87.789,167.981 84.189,159.279Z" style="fill:rgb(67,221,230);"/>
                            <path d="M134.277,159.279C126.935,165.033 124.384,169.909 124.469,173.509C124.526,176.513 126.624,178.554 129.118,179.235C131.556,179.887 134.391,179.15 135.893,176.598C137.707,173.509 137.849,167.981 134.277,159.279Z" style="fill:rgb(67,221,230);"/>
                            <path d="M181.956,159.279C174.614,165.033 172.063,169.909 172.148,173.509C172.205,176.513 174.331,178.554 176.797,179.235C179.263,179.887 182.069,179.15 183.572,176.598C185.386,173.509 185.556,167.981 181.956,159.279Z" style="fill:rgb(67,221,230);"/>
                            <g transform="matrix(1,0,0,1,-4.11443,2.43988)">
                                <path d="M159.449,148.847C160.101,147.713 161.575,147.317 162.709,147.969C163.871,148.649 164.239,150.094 163.587,151.257L155.622,165.033L159.42,165.033C160.753,165.033 161.83,166.11 161.83,167.414C161.83,167.953 161.66,168.435 161.376,168.831L152.447,184.28C151.795,185.414 150.321,185.811 149.187,185.159C148.054,184.507 147.657,183.033 148.309,181.899L155.282,169.824L151.483,169.824C151.087,169.824 150.661,169.71 150.293,169.512C149.131,168.831 148.762,167.357 149.414,166.224L159.449,148.847ZM109.134,148.847C109.786,147.713 111.26,147.317 112.394,147.969C113.556,148.649 113.924,150.094 113.272,151.257L105.335,165.033L109.106,165.033C110.438,165.033 111.515,166.11 111.515,167.414C111.515,167.953 111.345,168.435 111.061,168.831L102.132,184.28C101.48,185.414 100.006,185.811 98.872,185.159C97.739,184.507 97.342,183.033 97.994,181.899L104.967,169.824L101.169,169.824C100.772,169.824 100.346,169.71 99.978,169.512C98.816,168.831 98.447,167.357 99.099,166.224L109.134,148.847Z" style="fill:rgb(252,207,77);fill-rule:nonzero;"/>
                            </g>
                            <path d="M102.302,143.065L102.076,143.065C101.991,143.065 101.906,143.065 101.82,143.036C88.639,142.98 79.115,137.254 73.956,129.515C71.546,125.887 70.129,121.805 69.704,117.666C69.307,113.471 69.959,109.219 71.717,105.25C75.345,97.143 83.622,90.255 97.172,87.874L97.427,87.846L97.597,87.619C97.965,87.165 98.334,86.74 98.731,86.287L98.731,86.315C99.071,85.918 99.439,85.55 99.78,85.181C99.836,85.124 99.893,85.039 99.95,84.983C100.29,84.643 100.743,84.217 101.282,83.735C101.764,83.31 102.217,82.913 102.671,82.573C104.428,81.156 106.328,79.88 108.369,78.775C110.409,77.698 112.564,76.762 114.831,75.997L114.86,75.997C117.099,75.26 119.452,74.665 121.89,74.296C124.299,73.899 126.765,73.701 129.231,73.701C131.726,73.701 134.192,73.899 136.602,74.296C139.039,74.665 141.392,75.26 143.631,75.997C145.928,76.762 148.11,77.698 150.094,78.775C152.164,79.88 154.063,81.156 155.82,82.573C157.55,83.934 159.109,85.465 160.469,87.109C161.83,88.753 162.992,90.51 163.928,92.324C164.863,94.11 165.572,95.981 166.025,97.909C166.507,99.808 166.762,101.792 166.762,103.776C166.762,104.258 166.734,103.55 166.734,104.343C166.734,104.627 166.734,104.91 166.706,105.194L166.677,105.761L166.62,106.554L167.924,106.469C168.35,106.441 168.775,106.441 169.2,106.441C173.622,106.441 177.279,107.291 180.227,108.765C183.628,110.466 186.038,112.932 187.569,115.795L187.569,115.824C188.192,117.014 188.674,118.261 189.014,119.537C189.354,120.841 189.553,122.202 189.581,123.562C189.638,124.951 189.524,126.312 189.298,127.616C189.071,128.948 188.674,130.28 188.164,131.584C186.888,134.731 184.791,137.594 181.928,139.72C179.32,141.647 176.088,142.923 172.318,143.263L172.12,143.263L102.302,143.065ZM84.189,154.517C76.847,160.271 74.296,165.146 74.381,168.746C74.438,171.751 76.564,173.792 79.03,174.472C81.496,175.124 84.302,174.387 85.833,171.836C87.647,168.746 87.789,163.219 84.189,154.517ZM69.591,168.831C69.477,163.531 73.049,156.529 83.65,148.961C83.82,148.819 83.991,148.706 84.189,148.62C85.38,148.054 86.797,148.592 87.364,149.783C92.948,161.745 92.636,169.654 89.943,174.246C87.194,178.923 82.176,180.255 77.783,179.093C73.446,177.931 69.732,174.246 69.591,168.831ZM181.956,154.517C174.614,160.271 172.063,165.146 172.148,168.746C172.205,171.751 174.331,173.792 176.797,174.472C179.263,175.124 182.069,174.387 183.572,171.836C185.386,168.746 185.556,163.219 181.956,154.517ZM167.357,168.831C167.244,163.531 170.816,156.529 181.417,148.961C181.559,148.819 181.757,148.706 181.928,148.62C183.146,148.054 184.564,148.592 185.131,149.783C190.715,161.745 190.403,169.654 187.71,174.246C184.961,178.923 179.943,180.255 175.55,179.093C171.213,177.931 167.499,174.246 167.357,168.831ZM134.277,154.517C126.935,160.271 124.384,165.146 124.469,168.746C124.526,171.751 126.624,173.792 129.118,174.472C131.556,175.124 134.391,174.387 135.893,171.836C137.707,168.746 137.849,163.219 134.277,154.517ZM119.679,168.831C119.565,163.531 123.137,156.529 133.71,148.961C133.88,148.819 134.05,148.706 134.249,148.62C135.439,148.054 136.885,148.592 137.424,149.783C143.008,161.745 142.724,169.654 140.003,174.246C137.282,178.923 132.236,180.255 127.871,179.093C123.506,177.931 119.792,174.246 119.679,168.831ZM159.449,148.847C160.101,147.713 161.575,147.317 162.709,147.969C163.871,148.649 164.239,150.094 163.587,151.257L155.622,165.033L159.42,165.033C160.753,165.033 161.83,166.11 161.83,167.414C161.83,167.953 161.66,168.435 161.376,168.831L152.447,184.28C151.795,185.414 150.321,185.811 149.187,185.159C148.054,184.507 147.657,183.033 148.309,181.899L155.282,169.824L151.483,169.824C151.087,169.824 150.661,169.71 150.293,169.512C149.131,168.831 148.762,167.357 149.414,166.224L159.449,148.847ZM109.134,148.847C109.786,147.713 111.26,147.317 112.394,147.969C113.556,148.649 113.924,150.094 113.272,151.257L105.335,165.033L109.106,165.033C110.438,165.033 111.515,166.11 111.515,167.414C111.515,167.953 111.345,168.435 111.061,168.831L102.132,184.28C101.48,185.414 100.006,185.811 98.872,185.159C97.739,184.507 97.342,183.033 97.994,181.899L104.967,169.824L101.169,169.824C100.772,169.824 100.346,169.71 99.978,169.512C98.816,168.831 98.447,167.357 99.099,166.224L109.134,148.847ZM102.416,138.274L171.921,138.472C174.756,138.246 177.165,137.282 179.093,135.865C181.191,134.306 182.778,132.151 183.713,129.798C184.11,128.835 184.394,127.843 184.564,126.794C184.762,125.745 184.847,124.724 184.819,123.704C184.762,122.712 184.649,121.72 184.394,120.756C184.139,119.82 183.798,118.913 183.345,118.063C182.268,116.05 180.539,114.293 178.072,113.074C175.776,111.912 172.828,111.231 169.2,111.231C167.528,111.231 165.827,111.402 164.154,111.515C162.822,111.6 161.688,110.608 161.603,109.304L161.603,108.935C161.717,107.433 161.915,105.817 161.972,104.315C161.972,103.805 161.943,104.712 161.943,103.776C161.943,102.132 161.745,100.573 161.376,99.043C161.008,97.483 160.413,95.953 159.676,94.507C158.882,92.976 157.918,91.531 156.784,90.17C155.65,88.781 154.318,87.506 152.816,86.287C151.313,85.068 149.641,83.962 147.827,82.998C146.041,82.035 144.113,81.213 142.129,80.532C140.145,79.88 138.047,79.37 135.865,79.03C133.767,78.69 131.556,78.52 129.231,78.52C126.935,78.52 124.724,78.69 122.627,79.03C120.444,79.37 118.346,79.88 116.362,80.532C114.35,81.213 112.45,82.035 110.636,82.998C108.85,83.962 107.178,85.068 105.676,86.287C105.222,86.655 104.825,86.995 104.457,87.307C104.202,87.562 103.861,87.874 103.493,88.243L103.238,88.498C102.869,88.866 102.557,89.178 102.274,89.49L102.274,89.518C101.934,89.887 101.622,90.255 101.339,90.624L100.602,91.531C100.233,92.013 99.694,92.296 99.156,92.409L97.994,92.608C86.23,94.677 79.115,100.431 76.082,107.206C74.665,110.409 74.154,113.839 74.466,117.213C74.806,120.586 75.997,123.902 77.953,126.879C82.318,133.427 90.539,138.246 102.076,138.246C102.189,138.246 102.302,138.246 102.416,138.274Z" style="fill:rgb(54,79,107);fill-rule:nonzero;"/>
                        </g>
                    </g>
                </g>
                <g id="_11d.svg2" serif:id="11d.svg">
                </g>
            </g>
        </g>
    </g>
</svg>
