<?xml version="1.0" encoding="UTF-8" standalone="no"?>
<!DOCTYPE svg PUBLIC "-//W3C//DTD SVG 1.1//EN" "http://www.w3.org/Graphics/SVG/1.1/DTD/svg11.dtd">
<svg width="100%" height="100%" viewBox="0 0 125 125" version="1.1" xmlns="http://www.w3.org/2000/svg" xmlns:xlink="http://www.w3.org/1999/xlink" xml:space="preserve" xmlns:serif="http://www.serif.com/" style="fill-rule:evenodd;clip-rule:evenodd;stroke-linejoin:round;stroke-miterlimit:2;">
    <g id="Layer1" transform="matrix(1,0,0,1,4,2)">
        <g id="_13d.svg" serif:id="13d.svg" transform="matrix(1.04167,0,0,1.04167,58.5,60.5)">
            <g id="Layer11" serif:id="Layer1">
                <g id="_13d.svg1" serif:id="13d.svg" transform="matrix(1,0,0,1,-60,-56)">
                    <clipPath id="_clip1">
                        <rect x="0" y="0" width="120" height="112"/>
                    </clipPath>
                    <g clip-path="url(#_clip1)">
                        <g transform="matrix(1,0,0,1,-69.5917,-69.6189)">
                            <path d="M74.466,117.893C74.778,121.266 75.969,124.583 77.953,127.559C82.29,134.107 90.539,138.954 102.076,138.954L102.416,138.954L171.893,139.181C174.756,138.926 177.137,137.962 179.065,136.545C181.191,134.986 182.75,132.86 183.713,130.479C184.082,129.543 184.365,128.523 184.564,127.474C184.734,126.425 184.819,125.405 184.791,124.413C184.762,123.392 184.62,122.4 184.365,121.436C184.139,120.529 183.77,119.622 183.317,118.743C182.239,116.731 180.51,114.973 178.072,113.754C175.776,112.62 172.828,111.94 169.2,111.94L169.2,111.912L168.435,111.912C167.017,112.025 165.572,112.11 164.126,112.224C162.822,112.309 161.688,111.288 161.575,109.984L161.575,109.644C161.717,108.17 161.83,106.724 161.943,105.279L161.943,104.457C161.943,102.841 161.745,101.254 161.376,99.751C160.98,98.164 160.413,96.661 159.676,95.216C158.882,93.685 157.918,92.211 156.784,90.85C155.622,89.49 154.29,88.186 152.816,86.995C151.285,85.776 149.613,84.671 147.827,83.679C146.013,82.715 144.113,81.893 142.129,81.241C140.145,80.561 138.047,80.05 135.836,79.71C133.739,79.37 131.528,79.2 129.231,79.2C126.935,79.2 124.724,79.37 122.627,79.71C120.416,80.05 118.318,80.561 116.334,81.241C114.35,81.893 112.45,82.715 110.636,83.679C108.85,84.671 107.178,85.776 105.647,86.995C105.194,87.335 104.797,87.676 104.457,88.016C104.173,88.243 103.861,88.554 103.465,88.923C103.436,88.98 103.38,89.036 103.323,89.093C102.869,89.546 102.529,89.915 102.274,90.198C101.991,90.51 101.65,90.879 101.339,91.304L100.602,92.239C100.233,92.693 99.694,93.005 99.128,93.09L97.994,93.288C86.202,95.357 79.087,101.14 76.082,107.915C74.665,111.09 74.154,114.52 74.466,117.893Z" style="fill:rgb(230,233,238);"/>
                            <path d="M102.274,138.954L101.82,138.954C88.611,138.869 79.087,133.172 73.956,125.433C71.546,121.805 70.101,117.723 69.704,113.556C69.307,109.389 69.959,105.137 71.717,101.169C75.345,93.033 83.622,86.145 97.172,83.792L97.427,83.735L97.569,83.537C97.909,83.14 98.277,82.687 98.702,82.205C99.128,81.751 99.496,81.354 99.808,81.043C99.836,80.986 99.893,80.929 99.95,80.872C100.29,80.532 100.715,80.135 101.254,79.654C101.735,79.228 102.217,78.831 102.643,78.463C104.4,77.046 106.328,75.798 108.369,74.693C110.381,73.587 112.535,72.68 114.831,71.887C117.071,71.15 119.424,70.583 121.861,70.186C124.271,69.817 126.737,69.619 129.231,69.619C131.726,69.619 134.192,69.817 136.602,70.186C139.039,70.583 141.392,71.15 143.631,71.887C145.928,72.68 148.082,73.587 150.094,74.693C152.135,75.798 154.063,77.046 155.82,78.463C157.521,79.852 159.08,81.354 160.441,83.027C161.83,84.671 162.992,86.4 163.928,88.214C164.835,90 165.543,91.871 166.025,93.798C166.479,95.726 166.734,97.682 166.734,99.666L166.734,100.658L166.706,101.083L166.649,101.65L166.592,102.444C167.499,102.387 168.293,102.359 169.2,102.331C173.594,102.331 177.279,103.209 180.198,104.655C183.6,106.356 186.038,108.85 187.569,111.713C188.192,112.876 188.646,114.123 188.986,115.455C189.354,116.759 189.524,118.091 189.581,119.452C189.609,120.841 189.524,122.202 189.298,123.534C189.043,124.866 188.674,126.17 188.135,127.474C186.888,130.649 184.762,133.512 181.899,135.609C179.291,137.537 176.088,138.841 172.318,139.153L172.091,139.153L102.274,138.954ZM155.197,160.554C154.091,161.291 152.617,160.98 151.88,159.902C151.143,158.797 151.455,157.294 152.561,156.557L152.589,156.557L152.022,156.217C150.888,155.565 150.491,154.091 151.143,152.957C151.824,151.824 153.269,151.427 154.431,152.079L154.97,152.391C155.055,151.058 156.189,150.066 157.521,150.123C158.825,150.208 159.846,151.342 159.761,152.674L159.619,155.083L165.231,158.315L165.231,151.824L163.077,150.746C161.887,150.151 161.405,148.734 162,147.543C162.595,146.353 164.013,145.899 165.203,146.466L165.231,146.494L165.231,145.843C165.231,144.51 166.309,143.433 167.613,143.433C168.945,143.433 170.022,144.51 170.022,145.843L170.022,146.494L170.05,146.466C171.241,145.899 172.658,146.353 173.254,147.543C173.849,148.734 173.367,150.151 172.176,150.746L170.022,151.824L170.022,158.315L175.635,155.083L175.493,152.674C175.408,151.342 176.428,150.208 177.732,150.123C179.065,150.066 180.198,151.058 180.283,152.391L180.283,152.419L180.822,152.079C181.984,151.427 183.43,151.824 184.11,152.957C184.762,154.091 184.365,155.565 183.231,156.217L182.665,156.557L182.693,156.557C183.798,157.294 184.11,158.797 183.373,159.902C182.636,160.98 181.162,161.291 180.057,160.554L178.044,159.222L172.431,162.482L178.044,165.713L180.057,164.381C181.162,163.644 182.636,163.956 183.373,165.061C184.11,166.167 183.798,167.641 182.693,168.378L182.665,168.406L183.231,168.718C184.365,169.37 184.762,170.844 184.11,172.006C183.43,173.14 181.984,173.537 180.822,172.857L180.283,172.545L180.283,172.573C180.198,173.877 179.065,174.898 177.732,174.813C176.428,174.756 175.408,173.622 175.493,172.29L175.635,169.88L170.022,166.62L170.022,173.112L172.176,174.189C173.367,174.784 173.849,176.23 173.254,177.392C172.658,178.583 171.241,179.065 170.05,178.469L170.022,178.469L170.022,179.121C170.022,180.425 168.945,181.502 167.613,181.502C166.309,181.502 165.231,180.425 165.231,179.121L165.231,178.469L165.203,178.469C164.013,179.065 162.595,178.583 162,177.392C161.405,176.23 161.887,174.784 163.077,174.189L165.231,173.112L165.231,166.62L159.619,169.852L159.761,172.29C159.846,173.622 158.825,174.756 157.521,174.813C156.189,174.898 155.055,173.877 154.97,172.573L154.97,172.545L154.403,172.857C153.269,173.537 151.795,173.14 151.143,171.978C150.491,170.844 150.888,169.37 152.022,168.718L152.589,168.406L152.561,168.378C151.455,167.641 151.143,166.167 151.88,165.061C152.617,163.956 154.091,163.644 155.197,164.381L157.209,165.713L162.85,162.482L157.209,159.222L155.197,160.554ZM144.68,156.557C145.757,157.294 146.069,158.797 145.332,159.902C144.624,160.98 143.121,161.291 142.016,160.554L140.003,159.222L134.391,162.482L140.003,165.713L142.016,164.381C143.121,163.644 144.624,163.956 145.332,165.061C146.069,166.167 145.757,167.641 144.68,168.378L144.652,168.406L145.191,168.718C146.324,169.37 146.721,170.844 146.069,171.978C145.417,173.14 143.943,173.537 142.809,172.857L142.243,172.545L142.243,172.573C142.157,173.877 141.024,174.898 139.72,174.813C138.387,174.756 137.395,173.622 137.452,172.29L137.622,169.852L132.009,166.62L132.009,173.112L134.164,174.189C135.326,174.784 135.808,176.23 135.213,177.392C134.646,178.583 133.2,179.065 132.009,178.469L132.009,179.121C132.009,180.425 130.932,181.502 129.6,181.502C128.268,181.502 127.191,180.425 127.191,179.121L127.191,178.469L127.162,178.469C126,179.065 124.554,178.583 123.959,177.392C123.392,176.23 123.846,174.784 125.036,174.189L127.191,173.112L127.191,166.62L121.578,169.88L121.72,172.29C121.805,173.622 120.813,174.756 119.48,174.813C118.148,174.898 117.014,173.877 116.957,172.573L116.957,172.545L116.391,172.857C115.257,173.537 113.783,173.14 113.131,172.006C112.45,170.844 112.847,169.37 113.981,168.718L114.548,168.406L114.52,168.378C113.414,167.641 113.131,166.167 113.839,165.061C114.576,163.956 116.079,163.644 117.184,164.381L119.197,165.713L124.809,162.482L119.197,159.222L117.184,160.554C116.079,161.291 114.576,160.98 113.839,159.902C113.131,158.797 113.414,157.294 114.52,156.557L114.548,156.557L113.981,156.217C112.847,155.565 112.45,154.091 113.131,152.957C113.783,151.824 115.257,151.427 116.391,152.079L116.957,152.419L116.957,152.391C117.014,151.058 118.148,150.066 119.48,150.123C120.813,150.208 121.805,151.342 121.72,152.674L121.578,155.083L127.191,158.315L127.191,151.824L125.036,150.746C123.846,150.151 123.392,148.734 123.959,147.543C124.554,146.353 126,145.899 127.162,146.466L127.191,146.494L127.191,145.843C127.191,144.51 128.268,143.433 129.6,143.433C130.932,143.433 132.009,144.51 132.009,145.843L132.009,146.494L132.009,146.466C133.2,145.899 134.646,146.353 135.213,147.543C135.808,148.734 135.326,150.151 134.164,150.746L132.009,151.824L132.009,158.315L137.622,155.083L137.452,152.674C137.395,151.342 138.387,150.208 139.72,150.123C141.024,150.066 142.157,151.058 142.243,152.391L142.809,152.079C143.943,151.427 145.417,151.824 146.069,152.957C146.75,154.091 146.353,155.565 145.191,156.217L144.652,156.557L144.68,156.557ZM79.115,160.554C78.009,161.291 76.535,160.98 75.798,159.902C75.061,158.797 75.373,157.294 76.479,156.557L76.507,156.557L75.94,156.217C74.806,155.565 74.409,154.12 75.061,152.957C75.713,151.824 77.187,151.427 78.321,152.079L78.888,152.419L78.888,152.391C78.973,151.058 80.107,150.066 81.439,150.123C82.743,150.208 83.764,151.342 83.679,152.674L83.537,155.083L89.15,158.315L89.15,151.824L86.995,150.746C85.805,150.151 85.323,148.734 85.918,147.543C86.513,146.353 87.931,145.899 89.121,146.466L89.15,146.494L89.15,145.843C89.15,144.51 90.227,143.433 91.531,143.433C92.863,143.433 93.94,144.51 93.94,145.843L93.94,146.494L93.969,146.466C95.159,145.899 96.576,146.353 97.172,147.543C97.767,148.734 97.285,150.151 96.094,150.746L93.94,151.824L93.94,158.343L99.553,155.083L99.411,152.674C99.326,151.342 100.346,150.208 101.65,150.123C102.983,150.066 104.117,151.058 104.202,152.391L104.202,152.419L104.769,152.079C105.902,151.427 107.376,151.824 108.028,152.957C108.68,154.12 108.283,155.565 107.15,156.246L106.583,156.557L106.611,156.557C107.717,157.294 108.028,158.797 107.291,159.902C106.554,160.98 105.08,161.291 103.975,160.554L101.934,159.222L96.321,162.482L101.962,165.713L103.975,164.381C105.08,163.644 106.554,163.956 107.291,165.061C108.028,166.167 107.717,167.641 106.611,168.378L106.583,168.406L107.15,168.718C108.283,169.37 108.68,170.844 108.028,172.006C107.348,173.14 105.902,173.537 104.74,172.857L104.202,172.545L104.202,172.573C104.117,173.877 102.983,174.898 101.65,174.813C100.346,174.756 99.326,173.622 99.411,172.29L99.553,169.88L93.94,166.62L93.94,173.112L96.094,174.189C97.285,174.784 97.767,176.23 97.172,177.392C96.576,178.583 95.159,179.065 93.969,178.469L93.94,178.469L93.94,179.121C93.94,180.425 92.863,181.502 91.531,181.502C90.227,181.502 89.15,180.425 89.15,179.121L89.15,178.469L89.121,178.469C87.931,179.065 86.513,178.583 85.918,177.392C85.323,176.23 85.805,174.784 86.995,174.189L89.15,173.112L89.15,166.62L83.537,169.88L83.679,172.29C83.764,173.622 82.743,174.756 81.439,174.813C80.107,174.898 78.973,173.877 78.888,172.573L78.888,172.545L78.35,172.857C77.187,173.537 75.742,173.14 75.061,172.006C74.409,170.844 74.806,169.37 75.94,168.718L76.507,168.406L76.479,168.378C75.373,167.641 75.061,166.167 75.798,165.061C76.535,163.956 78.009,163.644 79.115,164.381L81.128,165.713L86.769,162.482L81.128,159.222L79.115,160.554ZM102.416,134.164L171.893,134.391C174.756,134.135 177.137,133.172 179.065,131.754C181.191,130.195 182.75,128.069 183.713,125.688C184.082,124.753 184.365,123.732 184.564,122.683C184.734,121.635 184.819,120.614 184.791,119.622C184.762,118.602 184.62,117.609 184.365,116.646C184.139,115.739 183.77,114.831 183.317,113.953C182.239,111.94 180.51,110.183 178.072,108.964C175.776,107.83 172.828,107.15 169.2,107.15L169.2,107.121L168.435,107.121C167.017,107.235 165.572,107.32 164.126,107.433C162.822,107.518 161.688,106.498 161.575,105.194L161.575,104.854C161.717,103.38 161.83,101.934 161.943,100.488L161.943,99.666C161.943,98.05 161.745,96.463 161.376,94.961C160.98,93.373 160.413,91.871 159.676,90.425C158.882,88.894 157.918,87.42 156.784,86.06C155.622,84.699 154.29,83.395 152.816,82.205C151.285,80.986 149.613,79.88 147.827,78.888C146.013,77.924 144.113,77.102 142.129,76.45C140.145,75.77 138.047,75.26 135.836,74.92C133.739,74.58 131.528,74.409 129.231,74.409C126.935,74.409 124.724,74.58 122.627,74.92C120.416,75.26 118.318,75.77 116.334,76.45C114.35,77.102 112.45,77.924 110.636,78.888C108.85,79.88 107.178,80.986 105.647,82.205C105.194,82.545 104.797,82.885 104.457,83.225C104.173,83.452 103.861,83.764 103.465,84.132C103.436,84.189 103.38,84.246 103.323,84.302C102.869,84.756 102.529,85.124 102.274,85.408C101.991,85.72 101.65,86.088 101.339,86.513L100.602,87.449C100.233,87.902 99.694,88.214 99.128,88.299L97.994,88.498C86.202,90.567 79.087,96.35 76.082,103.124C74.665,106.299 74.154,109.729 74.466,113.102C74.778,116.476 75.969,119.792 77.953,122.769C82.29,129.317 90.539,134.164 102.076,134.164L102.416,134.164Z" style="fill:rgb(54,79,107);fill-rule:nonzero;"/>
                        </g>
                    </g>
                </g>
                <g id="_13d.svg2" serif:id="13d.svg">
                </g>
            </g>
        </g>
    </g>
</svg>
