<?xml version="1.0" encoding="UTF-8" standalone="no"?>
<!DOCTYPE svg PUBLIC "-//W3C//DTD SVG 1.1//EN" "http://www.w3.org/Graphics/SVG/1.1/DTD/svg11.dtd">
<svg width="100%" height="100%" viewBox="0 0 125 125" version="1.1" xmlns="http://www.w3.org/2000/svg" xmlns:xlink="http://www.w3.org/1999/xlink" xml:space="preserve" xmlns:serif="http://www.serif.com/" style="fill-rule:evenodd;clip-rule:evenodd;stroke-linejoin:round;stroke-miterlimit:2;">
    <g id="Layer1" transform="matrix(1,0,0,1,4,2)">
        <g id="_50d.svg" serif:id="50d.svg" transform="matrix(0.647668,0,0,0.647668,58.5,60.5)">
            <g id="Layer11" serif:id="Layer1">
                <g id="_50d.svg1" serif:id="50d.svg" transform="matrix(1,0,0,1,-96.5,-63)">
                    <g transform="matrix(1,0,0,1,-33.4388,-60.5622)">
                        <g>
                            <g transform="matrix(1.16409,0,0,1.91962,8.17491,33.9925)">
                                <path d="M168.02,63.47C168.02,61.375 165.216,59.675 161.761,59.675L55.45,59.675C51.995,59.675 49.191,61.375 49.191,63.47C49.191,65.565 51.995,67.266 55.45,67.266L161.761,67.266C165.216,67.266 168.02,65.565 168.02,63.47Z" style="fill:rgb(55,79,107);"/>
                            </g>
                            <g transform="matrix(1.16409,0,0,1.91962,-23.8237,11.3278)">
                                <path d="M168.02,63.47C168.02,61.375 165.216,59.675 161.761,59.675L55.45,59.675C51.995,59.675 49.191,61.375 49.191,63.47C49.191,65.565 51.995,67.266 55.45,67.266L161.761,67.266C165.216,67.266 168.02,65.565 168.02,63.47Z" style="fill:rgb(55,79,107);"/>
                            </g>
                            <g transform="matrix(0.957165,0,0,1.91962,0.597833,-33.5147)">
                                <path d="M168.02,63.47C168.02,61.375 164.609,59.675 160.408,59.675L56.803,59.675C52.602,59.675 49.191,61.375 49.191,63.47C49.191,65.565 52.602,67.266 56.803,67.266L160.408,67.266C164.609,67.266 168.02,65.565 168.02,63.47Z" style="fill:rgb(55,79,107);"/>
                            </g>
                            <g transform="matrix(0.763434,0,0,0.763434,33.3251,19.1708)">
                                <circle cx="181.312" cy="90.582" r="9.544" style="fill:rgb(55,79,107);"/>
                            </g>
                            <g transform="matrix(0.763434,0,0,0.763434,-63.41,109.357)">
                                <circle cx="181.312" cy="90.582" r="9.544" style="fill:rgb(55,79,107);"/>
                            </g>
                            <g transform="matrix(0.552584,0,0,1.91962,58.5156,-53.9903)">
                                <path d="M168.02,63.47C168.02,61.375 162.112,59.675 154.834,59.675L62.377,59.675C55.099,59.675 49.191,61.375 49.191,63.47C49.191,65.565 55.099,67.266 62.377,67.266L154.834,67.266C162.112,67.266 168.02,65.565 168.02,63.47Z" style="fill:rgb(55,79,107);"/>
                            </g>
                            <g transform="matrix(1.20732,0,0,1.91962,22.907,-11.2835)">
                                <path d="M168.02,63.47C168.02,61.375 165.316,59.675 161.985,59.675L55.226,59.675C51.895,59.675 49.191,61.375 49.191,63.47C49.191,65.565 51.895,67.266 55.226,67.266L161.985,67.266C165.316,67.266 168.02,65.565 168.02,63.47Z" style="fill:rgb(55,79,107);"/>
                            </g>
                            <g transform="matrix(0.724122,0,0,1.91962,50.0776,55.4995)">
                                <path d="M168.02,63.47C168.02,61.375 163.511,59.675 157.958,59.675L59.253,59.675C53.7,59.675 49.191,61.375 49.191,63.47C49.191,65.565 53.7,67.266 59.253,67.266L157.958,67.266C163.511,67.266 168.02,65.565 168.02,63.47Z" style="fill:rgb(55,79,107);"/>
                            </g>
                        </g>
                    </g>
                </g>
                <g id="_50d.svg2" serif:id="50d.svg">
                </g>
            </g>
        </g>
    </g>
</svg>
